<mxfile host="app.diagrams.net" agent="Mozilla/5.0 (Windows NT 10.0; Win64; x64) AppleWebKit/537.36 (KHTML, like Gecko) Chrome/128.0.0.0 Safari/537.36" version="24.7.13">
  <diagram name="페이지-1" id="Pw9uePoQwsNz8jf9Rr-p">
    <mxGraphModel dx="1434" dy="746" grid="1" gridSize="10" guides="1" tooltips="1" connect="1" arrows="1" fold="1" page="1" pageScale="1" pageWidth="827" pageHeight="1169" math="0" shadow="0">
      <root>
        <mxCell id="0" />
        <mxCell id="1" parent="0" />
        <mxCell id="STVm8akJiiikUNMicJ6v-13" value="Player" style="swimlane;fontStyle=1;align=center;verticalAlign=top;childLayout=stackLayout;horizontal=1;startSize=26;horizontalStack=0;resizeParent=1;resizeParentMax=0;resizeLast=0;collapsible=1;marginBottom=0;whiteSpace=wrap;html=1;" parent="1" vertex="1">
          <mxGeometry x="264" y="300" width="160" height="154" as="geometry" />
        </mxCell>
        <mxCell id="STVm8akJiiikUNMicJ6v-14" value="name : string&lt;div&gt;position_code : string&lt;/div&gt;" style="text;strokeColor=none;fillColor=none;align=left;verticalAlign=top;spacingLeft=4;spacingRight=4;overflow=hidden;rotatable=0;points=[[0,0.5],[1,0.5]];portConstraint=eastwest;whiteSpace=wrap;html=1;" parent="STVm8akJiiikUNMicJ6v-13" vertex="1">
          <mxGeometry y="26" width="160" height="44" as="geometry" />
        </mxCell>
        <mxCell id="STVm8akJiiikUNMicJ6v-15" value="" style="line;strokeWidth=1;fillColor=none;align=left;verticalAlign=middle;spacingTop=-1;spacingLeft=3;spacingRight=3;rotatable=0;labelPosition=right;points=[];portConstraint=eastwest;strokeColor=inherit;" parent="STVm8akJiiikUNMicJ6v-13" vertex="1">
          <mxGeometry y="70" width="160" height="12" as="geometry" />
        </mxCell>
        <mxCell id="STVm8akJiiikUNMicJ6v-16" value="+ tos&lt;div&gt;+spake&lt;/div&gt;&lt;div&gt;+receive&lt;/div&gt;&lt;div&gt;+serve&lt;/div&gt;" style="text;strokeColor=none;fillColor=none;align=left;verticalAlign=top;spacingLeft=4;spacingRight=4;overflow=hidden;rotatable=0;points=[[0,0.5],[1,0.5]];portConstraint=eastwest;whiteSpace=wrap;html=1;" parent="STVm8akJiiikUNMicJ6v-13" vertex="1">
          <mxGeometry y="82" width="160" height="72" as="geometry" />
        </mxCell>
        <mxCell id="STVm8akJiiikUNMicJ6v-17" value="Point" style="swimlane;fontStyle=1;align=center;verticalAlign=top;childLayout=stackLayout;horizontal=1;startSize=26;horizontalStack=0;resizeParent=1;resizeParentMax=0;resizeLast=0;collapsible=1;marginBottom=0;whiteSpace=wrap;html=1;" parent="1" vertex="1">
          <mxGeometry x="264" y="522" width="160" height="86" as="geometry" />
        </mxCell>
        <mxCell id="STVm8akJiiikUNMicJ6v-18" value="set: Set" style="text;strokeColor=none;fillColor=none;align=left;verticalAlign=top;spacingLeft=4;spacingRight=4;overflow=hidden;rotatable=0;points=[[0,0.5],[1,0.5]];portConstraint=eastwest;whiteSpace=wrap;html=1;" parent="STVm8akJiiikUNMicJ6v-17" vertex="1">
          <mxGeometry y="26" width="160" height="26" as="geometry" />
        </mxCell>
        <mxCell id="STVm8akJiiikUNMicJ6v-19" value="" style="line;strokeWidth=1;fillColor=none;align=left;verticalAlign=middle;spacingTop=-1;spacingLeft=3;spacingRight=3;rotatable=0;labelPosition=right;points=[];portConstraint=eastwest;strokeColor=inherit;" parent="STVm8akJiiikUNMicJ6v-17" vertex="1">
          <mxGeometry y="52" width="160" height="8" as="geometry" />
        </mxCell>
        <mxCell id="STVm8akJiiikUNMicJ6v-20" value="+ method(type): type" style="text;strokeColor=none;fillColor=none;align=left;verticalAlign=top;spacingLeft=4;spacingRight=4;overflow=hidden;rotatable=0;points=[[0,0.5],[1,0.5]];portConstraint=eastwest;whiteSpace=wrap;html=1;" parent="STVm8akJiiikUNMicJ6v-17" vertex="1">
          <mxGeometry y="60" width="160" height="26" as="geometry" />
        </mxCell>
        <mxCell id="STVm8akJiiikUNMicJ6v-21" value="Set" style="swimlane;fontStyle=1;align=center;verticalAlign=top;childLayout=stackLayout;horizontal=1;startSize=26;horizontalStack=0;resizeParent=1;resizeParentMax=0;resizeLast=0;collapsible=1;marginBottom=0;whiteSpace=wrap;html=1;" parent="1" vertex="1">
          <mxGeometry x="560" y="522" width="160" height="130" as="geometry" />
        </mxCell>
        <mxCell id="STVm8akJiiikUNMicJ6v-22" value="set_number: int&lt;div&gt;team_name : String&lt;/div&gt;" style="text;strokeColor=none;fillColor=none;align=left;verticalAlign=top;spacingLeft=4;spacingRight=4;overflow=hidden;rotatable=0;points=[[0,0.5],[1,0.5]];portConstraint=eastwest;whiteSpace=wrap;html=1;" parent="STVm8akJiiikUNMicJ6v-21" vertex="1">
          <mxGeometry y="26" width="160" height="54" as="geometry" />
        </mxCell>
        <mxCell id="STVm8akJiiikUNMicJ6v-23" value="" style="line;strokeWidth=1;fillColor=none;align=left;verticalAlign=middle;spacingTop=-1;spacingLeft=3;spacingRight=3;rotatable=0;labelPosition=right;points=[];portConstraint=eastwest;strokeColor=inherit;" parent="STVm8akJiiikUNMicJ6v-21" vertex="1">
          <mxGeometry y="80" width="160" height="8" as="geometry" />
        </mxCell>
        <mxCell id="STVm8akJiiikUNMicJ6v-24" value="+lose&lt;div&gt;+score_record&lt;/div&gt;" style="text;strokeColor=none;fillColor=none;align=left;verticalAlign=top;spacingLeft=4;spacingRight=4;overflow=hidden;rotatable=0;points=[[0,0.5],[1,0.5]];portConstraint=eastwest;whiteSpace=wrap;html=1;" parent="STVm8akJiiikUNMicJ6v-21" vertex="1">
          <mxGeometry y="88" width="160" height="42" as="geometry" />
        </mxCell>
        <mxCell id="STVm8akJiiikUNMicJ6v-25" value="&amp;lt;abstract&amp;gt;" style="swimlane;fontStyle=1;align=center;verticalAlign=top;childLayout=stackLayout;horizontal=1;startSize=26;horizontalStack=0;resizeParent=1;resizeParentMax=0;resizeLast=0;collapsible=1;marginBottom=0;whiteSpace=wrap;html=1;" parent="1" vertex="1">
          <mxGeometry x="560" y="300" width="160" height="110" as="geometry" />
        </mxCell>
        <mxCell id="STVm8akJiiikUNMicJ6v-26" value="team_name: String&lt;div&gt;game_name: String&lt;/div&gt;" style="text;strokeColor=none;fillColor=none;align=left;verticalAlign=top;spacingLeft=4;spacingRight=4;overflow=hidden;rotatable=0;points=[[0,0.5],[1,0.5]];portConstraint=eastwest;whiteSpace=wrap;html=1;" parent="STVm8akJiiikUNMicJ6v-25" vertex="1">
          <mxGeometry y="26" width="160" height="44" as="geometry" />
        </mxCell>
        <mxCell id="STVm8akJiiikUNMicJ6v-27" value="" style="line;strokeWidth=1;fillColor=none;align=left;verticalAlign=middle;spacingTop=-1;spacingLeft=3;spacingRight=3;rotatable=0;labelPosition=right;points=[];portConstraint=eastwest;strokeColor=inherit;" parent="STVm8akJiiikUNMicJ6v-25" vertex="1">
          <mxGeometry y="70" width="160" height="8" as="geometry" />
        </mxCell>
        <mxCell id="STVm8akJiiikUNMicJ6v-28" value="+ method(type): type" style="text;strokeColor=none;fillColor=none;align=left;verticalAlign=top;spacingLeft=4;spacingRight=4;overflow=hidden;rotatable=0;points=[[0,0.5],[1,0.5]];portConstraint=eastwest;whiteSpace=wrap;html=1;" parent="STVm8akJiiikUNMicJ6v-25" vertex="1">
          <mxGeometry y="78" width="160" height="32" as="geometry" />
        </mxCell>
        <mxCell id="STVm8akJiiikUNMicJ6v-32" value="Poward" style="swimlane;fontStyle=1;align=center;verticalAlign=top;childLayout=stackLayout;horizontal=1;startSize=26;horizontalStack=0;resizeParent=1;resizeParentMax=0;resizeLast=0;collapsible=1;marginBottom=0;whiteSpace=wrap;html=1;" parent="1" vertex="1">
          <mxGeometry x="20" y="311" width="160" height="34" as="geometry" />
        </mxCell>
        <mxCell id="STVm8akJiiikUNMicJ6v-34" value="" style="line;strokeWidth=1;fillColor=none;align=left;verticalAlign=middle;spacingTop=-1;spacingLeft=3;spacingRight=3;rotatable=0;labelPosition=right;points=[];portConstraint=eastwest;strokeColor=inherit;" parent="STVm8akJiiikUNMicJ6v-32" vertex="1">
          <mxGeometry y="26" width="160" height="8" as="geometry" />
        </mxCell>
        <mxCell id="STVm8akJiiikUNMicJ6v-36" value="Reverse" style="swimlane;fontStyle=1;align=center;verticalAlign=top;childLayout=stackLayout;horizontal=1;startSize=26;horizontalStack=0;resizeParent=1;resizeParentMax=0;resizeLast=0;collapsible=1;marginBottom=0;whiteSpace=wrap;html=1;" parent="1" vertex="1">
          <mxGeometry x="20" y="361" width="160" height="34" as="geometry" />
        </mxCell>
        <mxCell id="STVm8akJiiikUNMicJ6v-37" value="" style="line;strokeWidth=1;fillColor=none;align=left;verticalAlign=middle;spacingTop=-1;spacingLeft=3;spacingRight=3;rotatable=0;labelPosition=right;points=[];portConstraint=eastwest;strokeColor=inherit;" parent="STVm8akJiiikUNMicJ6v-36" vertex="1">
          <mxGeometry y="26" width="160" height="8" as="geometry" />
        </mxCell>
        <mxCell id="STVm8akJiiikUNMicJ6v-38" value="Center" style="swimlane;fontStyle=1;align=center;verticalAlign=top;childLayout=stackLayout;horizontal=1;startSize=26;horizontalStack=0;resizeParent=1;resizeParentMax=0;resizeLast=0;collapsible=1;marginBottom=0;whiteSpace=wrap;html=1;" parent="1" vertex="1">
          <mxGeometry x="20" y="405" width="160" height="34" as="geometry" />
        </mxCell>
        <mxCell id="STVm8akJiiikUNMicJ6v-39" value="" style="line;strokeWidth=1;fillColor=none;align=left;verticalAlign=middle;spacingTop=-1;spacingLeft=3;spacingRight=3;rotatable=0;labelPosition=right;points=[];portConstraint=eastwest;strokeColor=inherit;" parent="STVm8akJiiikUNMicJ6v-38" vertex="1">
          <mxGeometry y="26" width="160" height="8" as="geometry" />
        </mxCell>
        <mxCell id="STVm8akJiiikUNMicJ6v-40" value="" style="endArrow=none;html=1;rounded=0;entryX=0.013;entryY=0.722;entryDx=0;entryDy=0;entryPerimeter=0;exitX=1;exitY=0.5;exitDx=0;exitDy=0;" parent="1" source="STVm8akJiiikUNMicJ6v-18" target="STVm8akJiiikUNMicJ6v-22" edge="1">
          <mxGeometry width="50" height="50" relative="1" as="geometry">
            <mxPoint x="400" y="662" as="sourcePoint" />
            <mxPoint x="450" y="612" as="targetPoint" />
          </mxGeometry>
        </mxCell>
        <mxCell id="STVm8akJiiikUNMicJ6v-41" value="" style="endArrow=none;html=1;rounded=0;exitX=0.5;exitY=1.028;exitDx=0;exitDy=0;exitPerimeter=0;" parent="1" source="STVm8akJiiikUNMicJ6v-16" target="STVm8akJiiikUNMicJ6v-17" edge="1">
          <mxGeometry width="50" height="50" relative="1" as="geometry">
            <mxPoint x="434" y="571" as="sourcePoint" />
            <mxPoint x="567" y="592" as="targetPoint" />
          </mxGeometry>
        </mxCell>
        <mxCell id="STVm8akJiiikUNMicJ6v-46" value="" style="endArrow=block;endFill=0;endSize=12;html=1;rounded=0;exitX=1;exitY=0.5;exitDx=0;exitDy=0;entryX=-0.012;entryY=1.023;entryDx=0;entryDy=0;entryPerimeter=0;" parent="1" source="STVm8akJiiikUNMicJ6v-32" target="STVm8akJiiikUNMicJ6v-14" edge="1">
          <mxGeometry width="160" relative="1" as="geometry">
            <mxPoint x="340" y="532" as="sourcePoint" />
            <mxPoint x="490" y="452" as="targetPoint" />
          </mxGeometry>
        </mxCell>
        <mxCell id="STVm8akJiiikUNMicJ6v-47" value="" style="endArrow=block;endFill=0;endSize=12;html=1;rounded=0;exitX=1;exitY=0.5;exitDx=0;exitDy=0;" parent="1" source="STVm8akJiiikUNMicJ6v-36" edge="1">
          <mxGeometry width="160" relative="1" as="geometry">
            <mxPoint x="190" y="338" as="sourcePoint" />
            <mxPoint x="270" y="381" as="targetPoint" />
          </mxGeometry>
        </mxCell>
        <mxCell id="STVm8akJiiikUNMicJ6v-48" value="" style="endArrow=block;endFill=0;endSize=12;html=1;rounded=0;exitX=1;exitY=0.5;exitDx=0;exitDy=0;" parent="1" source="STVm8akJiiikUNMicJ6v-38" edge="1">
          <mxGeometry width="160" relative="1" as="geometry">
            <mxPoint x="170" y="432" as="sourcePoint" />
            <mxPoint x="270" y="392" as="targetPoint" />
          </mxGeometry>
        </mxCell>
        <mxCell id="STVm8akJiiikUNMicJ6v-49" value="1..*(한개 이상의 객체와 연관 된다.)" style="text;html=1;align=center;verticalAlign=middle;resizable=0;points=[];autosize=1;" parent="1" vertex="1">
          <mxGeometry x="255" y="500" width="210" height="30" as="geometry" />
        </mxCell>
        <mxCell id="STVm8akJiiikUNMicJ6v-50" value="1(한 객체와 연관 된다. 표기하지 않아도 되는 기본값)" style="text;html=1;align=center;verticalAlign=middle;resizable=0;points=[];autosize=1;strokeColor=none;fillColor=none;" parent="1" vertex="1">
          <mxGeometry x="210" y="442" width="300" height="30" as="geometry" />
        </mxCell>
        <mxCell id="STVm8akJiiikUNMicJ6v-51" value="0.25(0개에서 25개까지의 객체와 연관된다.)" style="text;html=1;align=center;verticalAlign=middle;resizable=0;points=[];autosize=1;fontColor=#FF0000;" parent="1" vertex="1">
          <mxGeometry x="310" y="550" width="260" height="30" as="geometry" />
        </mxCell>
        <mxCell id="STVm8akJiiikUNMicJ6v-52" value="0.3(0개에서 3개까지의 객체와 연관된다.)" style="text;html=1;align=center;verticalAlign=middle;resizable=0;points=[];autosize=1;strokeColor=none;fillColor=none;" parent="1" vertex="1">
          <mxGeometry x="230" y="610" width="240" height="30" as="geometry" />
        </mxCell>
        <mxCell id="STVm8akJiiikUNMicJ6v-54" value="&lt;font style=&quot;font-size: 14px;&quot;&gt;다중성 표현&lt;/font&gt;&lt;div style=&quot;font-size: 14px;&quot;&gt;&lt;font style=&quot;font-size: 14px;&quot;&gt;&lt;br&gt;&lt;/font&gt;&lt;/div&gt;&lt;div style=&quot;font-size: 14px;&quot;&gt;&lt;font style=&quot;font-size: 14px;&quot;&gt;1: 한 객체와 연관된다. 기본값이고 표기하지 않아도 된다.&lt;/font&gt;&lt;/div&gt;&lt;div style=&quot;font-size: 14px;&quot;&gt;&lt;font style=&quot;font-size: 14px;&quot;&gt;0..1 : 0개 또는 1개의 객체와 연관된다.&lt;/font&gt;&lt;/div&gt;&lt;div style=&quot;font-size: 14px;&quot;&gt;&lt;font style=&quot;font-size: 14px;&quot;&gt;0..*: 0개 또는 많은 수의 객체와 연관된다.&lt;/font&gt;&lt;/div&gt;&lt;div style=&quot;font-size: 14px;&quot;&gt;&lt;font style=&quot;font-size: 14px;&quot;&gt;*: 0..*와 동일&lt;/font&gt;&lt;/div&gt;&lt;div style=&quot;font-size: 14px;&quot;&gt;&lt;font style=&quot;font-size: 14px;&quot;&gt;1..*: 1개 이상의 객체와 연관된다.&lt;/font&gt;&lt;/div&gt;&lt;div style=&quot;font-size: 14px;&quot;&gt;&lt;font style=&quot;font-size: 14px;&quot;&gt;1..12: 1개에서 12개까지의 객체와 연관된다.&lt;/font&gt;&lt;/div&gt;&lt;div style=&quot;font-size: 14px;&quot;&gt;&lt;font style=&quot;font-size: 14px;&quot;&gt;1..2,4,8: 1개에서2개까지 또는 4개 또는 8개의 객체와 연관된다.&lt;/font&gt;&lt;/div&gt;" style="text;html=1;align=left;verticalAlign=middle;resizable=0;points=[];autosize=1;strokeColor=none;fillColor=none;" parent="1" vertex="1">
          <mxGeometry x="20" y="642" width="420" height="160" as="geometry" />
        </mxCell>
        <mxCell id="STVm8akJiiikUNMicJ6v-55" value="Player" style="swimlane;fontStyle=1;align=center;verticalAlign=top;childLayout=stackLayout;horizontal=1;startSize=26;horizontalStack=0;resizeParent=1;resizeParentMax=0;resizeLast=0;collapsible=1;marginBottom=0;whiteSpace=wrap;html=1;" parent="1" vertex="1">
          <mxGeometry x="20" y="890" width="160" height="34" as="geometry" />
        </mxCell>
        <mxCell id="STVm8akJiiikUNMicJ6v-56" value="" style="line;strokeWidth=1;fillColor=none;align=left;verticalAlign=middle;spacingTop=-1;spacingLeft=3;spacingRight=3;rotatable=0;labelPosition=right;points=[];portConstraint=eastwest;strokeColor=inherit;" parent="STVm8akJiiikUNMicJ6v-55" vertex="1">
          <mxGeometry y="26" width="160" height="8" as="geometry" />
        </mxCell>
        <mxCell id="STVm8akJiiikUNMicJ6v-57" value="Box" style="swimlane;fontStyle=1;align=center;verticalAlign=top;childLayout=stackLayout;horizontal=1;startSize=26;horizontalStack=0;resizeParent=1;resizeParentMax=0;resizeLast=0;collapsible=1;marginBottom=0;whiteSpace=wrap;html=1;" parent="1" vertex="1">
          <mxGeometry x="30" y="60" width="160" height="124" as="geometry" />
        </mxCell>
        <mxCell id="STVm8akJiiikUNMicJ6v-58" value="width: int&lt;div&gt;depth: int&lt;/div&gt;&lt;div&gt;height: int&lt;/div&gt;" style="text;strokeColor=none;fillColor=none;align=left;verticalAlign=top;spacingLeft=4;spacingRight=4;overflow=hidden;rotatable=0;points=[[0,0.5],[1,0.5]];portConstraint=eastwest;whiteSpace=wrap;html=1;" parent="STVm8akJiiikUNMicJ6v-57" vertex="1">
          <mxGeometry y="26" width="160" height="64" as="geometry" />
        </mxCell>
        <mxCell id="STVm8akJiiikUNMicJ6v-59" value="" style="line;strokeWidth=1;fillColor=none;align=left;verticalAlign=middle;spacingTop=-1;spacingLeft=3;spacingRight=3;rotatable=0;labelPosition=right;points=[];portConstraint=eastwest;strokeColor=inherit;" parent="STVm8akJiiikUNMicJ6v-57" vertex="1">
          <mxGeometry y="90" width="160" height="8" as="geometry" />
        </mxCell>
        <mxCell id="STVm8akJiiikUNMicJ6v-60" value="+value" style="text;strokeColor=none;fillColor=none;align=left;verticalAlign=top;spacingLeft=4;spacingRight=4;overflow=hidden;rotatable=0;points=[[0,0.5],[1,0.5]];portConstraint=eastwest;whiteSpace=wrap;html=1;" parent="STVm8akJiiikUNMicJ6v-57" vertex="1">
          <mxGeometry y="98" width="160" height="26" as="geometry" />
        </mxCell>
        <mxCell id="STVm8akJiiikUNMicJ6v-61" value="클래스 이름" style="text;html=1;align=center;verticalAlign=middle;resizable=0;points=[];autosize=1;strokeColor=none;fillColor=none;" parent="1" vertex="1">
          <mxGeometry x="175" y="60" width="90" height="30" as="geometry" />
        </mxCell>
        <mxCell id="STVm8akJiiikUNMicJ6v-62" value="속성" style="text;html=1;align=center;verticalAlign=middle;resizable=0;points=[];autosize=1;strokeColor=none;fillColor=none;" parent="1" vertex="1">
          <mxGeometry x="175" y="110" width="50" height="30" as="geometry" />
        </mxCell>
        <mxCell id="STVm8akJiiikUNMicJ6v-63" value="메서드" style="text;html=1;align=center;verticalAlign=middle;resizable=0;points=[];autosize=1;strokeColor=none;fillColor=none;" parent="1" vertex="1">
          <mxGeometry x="180" y="170" width="60" height="30" as="geometry" />
        </mxCell>
        <mxCell id="STVm8akJiiikUNMicJ6v-68" value="Account" style="swimlane;fontStyle=1;align=center;verticalAlign=top;childLayout=stackLayout;horizontal=1;startSize=26;horizontalStack=0;resizeParent=1;resizeParentMax=0;resizeLast=0;collapsible=1;marginBottom=0;whiteSpace=wrap;html=1;" parent="1" vertex="1">
          <mxGeometry x="320" y="72" width="160" height="84" as="geometry" />
        </mxCell>
        <mxCell id="STVm8akJiiikUNMicJ6v-69" value="balance : int" style="text;strokeColor=none;fillColor=none;align=left;verticalAlign=top;spacingLeft=4;spacingRight=4;overflow=hidden;rotatable=0;points=[[0,0.5],[1,0.5]];portConstraint=eastwest;whiteSpace=wrap;html=1;" parent="STVm8akJiiikUNMicJ6v-68" vertex="1">
          <mxGeometry y="26" width="160" height="24" as="geometry" />
        </mxCell>
        <mxCell id="STVm8akJiiikUNMicJ6v-70" value="" style="line;strokeWidth=1;fillColor=none;align=left;verticalAlign=middle;spacingTop=-1;spacingLeft=3;spacingRight=3;rotatable=0;labelPosition=right;points=[];portConstraint=eastwest;strokeColor=inherit;" parent="STVm8akJiiikUNMicJ6v-68" vertex="1">
          <mxGeometry y="50" width="160" height="8" as="geometry" />
        </mxCell>
        <mxCell id="STVm8akJiiikUNMicJ6v-71" value="&lt;div&gt;+deposit&lt;/div&gt;" style="text;strokeColor=none;fillColor=none;align=left;verticalAlign=top;spacingLeft=4;spacingRight=4;overflow=hidden;rotatable=0;points=[[0,0.5],[1,0.5]];portConstraint=eastwest;whiteSpace=wrap;html=1;" parent="STVm8akJiiikUNMicJ6v-68" vertex="1">
          <mxGeometry y="58" width="160" height="26" as="geometry" />
        </mxCell>
        <mxCell id="STVm8akJiiikUNMicJ6v-72" value="Application" style="swimlane;fontStyle=1;align=center;verticalAlign=top;childLayout=stackLayout;horizontal=1;startSize=26;horizontalStack=0;resizeParent=1;resizeParentMax=0;resizeLast=0;collapsible=1;marginBottom=0;whiteSpace=wrap;html=1;" parent="1" vertex="1">
          <mxGeometry x="600" y="72" width="160" height="84" as="geometry" />
        </mxCell>
        <mxCell id="STVm8akJiiikUNMicJ6v-73" value="account:Account" style="text;strokeColor=none;fillColor=none;align=left;verticalAlign=top;spacingLeft=4;spacingRight=4;overflow=hidden;rotatable=0;points=[[0,0.5],[1,0.5]];portConstraint=eastwest;whiteSpace=wrap;html=1;" parent="STVm8akJiiikUNMicJ6v-72" vertex="1">
          <mxGeometry y="26" width="160" height="24" as="geometry" />
        </mxCell>
        <mxCell id="STVm8akJiiikUNMicJ6v-74" value="" style="line;strokeWidth=1;fillColor=none;align=left;verticalAlign=middle;spacingTop=-1;spacingLeft=3;spacingRight=3;rotatable=0;labelPosition=right;points=[];portConstraint=eastwest;strokeColor=inherit;" parent="STVm8akJiiikUNMicJ6v-72" vertex="1">
          <mxGeometry y="50" width="160" height="8" as="geometry" />
        </mxCell>
        <mxCell id="STVm8akJiiikUNMicJ6v-75" value="&lt;div&gt;main&lt;/div&gt;" style="text;strokeColor=none;fillColor=none;align=left;verticalAlign=top;spacingLeft=4;spacingRight=4;overflow=hidden;rotatable=0;points=[[0,0.5],[1,0.5]];portConstraint=eastwest;whiteSpace=wrap;html=1;" parent="STVm8akJiiikUNMicJ6v-72" vertex="1">
          <mxGeometry y="58" width="160" height="26" as="geometry" />
        </mxCell>
        <mxCell id="STVm8akJiiikUNMicJ6v-79" value="+: public&lt;div&gt;-: private&lt;/div&gt;&lt;div&gt;#: protected&amp;nbsp;&lt;/div&gt;" style="text;html=1;align=left;verticalAlign=middle;resizable=0;points=[];autosize=1;strokeColor=none;fillColor=none;" parent="1" vertex="1">
          <mxGeometry x="35" y="220" width="90" height="60" as="geometry" />
        </mxCell>
        <mxCell id="STVm8akJiiikUNMicJ6v-80" value="Box{&lt;div&gt;private int width;&lt;/div&gt;&lt;div&gt;private int height&lt;/div&gt;&lt;div&gt;private int depth;&lt;/div&gt;&lt;div&gt;void value() {&lt;/div&gt;&lt;div&gt;}&lt;/div&gt;" style="text;html=1;align=left;verticalAlign=middle;resizable=0;points=[];autosize=1;strokeColor=none;fillColor=none;" parent="1" vertex="1">
          <mxGeometry x="145" y="200" width="110" height="100" as="geometry" />
        </mxCell>
        <mxCell id="STVm8akJiiikUNMicJ6v-81" value="" style="endArrow=block;endFill=0;endSize=12;html=1;rounded=0;exitX=0.5;exitY=0;exitDx=0;exitDy=0;entryX=0.481;entryY=0.938;entryDx=0;entryDy=0;entryPerimeter=0;" parent="1" source="STVm8akJiiikUNMicJ6v-21" target="STVm8akJiiikUNMicJ6v-28" edge="1">
          <mxGeometry width="160" relative="1" as="geometry">
            <mxPoint x="190" y="432" as="sourcePoint" />
            <mxPoint x="648" y="413" as="targetPoint" />
          </mxGeometry>
        </mxCell>
        <mxCell id="STVm8akJiiikUNMicJ6v-82" value="Team" style="swimlane;fontStyle=1;align=center;verticalAlign=top;childLayout=stackLayout;horizontal=1;startSize=26;horizontalStack=0;resizeParent=1;resizeParentMax=0;resizeLast=0;collapsible=1;marginBottom=0;whiteSpace=wrap;html=1;" parent="1" vertex="1">
          <mxGeometry x="414" y="890" width="160" height="34" as="geometry" />
        </mxCell>
        <mxCell id="STVm8akJiiikUNMicJ6v-83" value="" style="line;strokeWidth=1;fillColor=none;align=left;verticalAlign=middle;spacingTop=-1;spacingLeft=3;spacingRight=3;rotatable=0;labelPosition=right;points=[];portConstraint=eastwest;strokeColor=inherit;" parent="STVm8akJiiikUNMicJ6v-82" vertex="1">
          <mxGeometry y="26" width="160" height="8" as="geometry" />
        </mxCell>
        <mxCell id="STVm8akJiiikUNMicJ6v-84" value="연관 관계" style="text;html=1;align=center;verticalAlign=middle;resizable=0;points=[];autosize=1;strokeColor=none;fillColor=none;" parent="1" vertex="1">
          <mxGeometry x="30" y="850" width="70" height="30" as="geometry" />
        </mxCell>
        <mxCell id="STVm8akJiiikUNMicJ6v-89" value="" style="endArrow=none;html=1;edgeStyle=orthogonalEdgeStyle;rounded=0;exitX=1;exitY=0.5;exitDx=0;exitDy=0;entryX=0;entryY=0.5;entryDx=0;entryDy=0;" parent="1" source="STVm8akJiiikUNMicJ6v-55" target="STVm8akJiiikUNMicJ6v-82" edge="1">
          <mxGeometry relative="1" as="geometry">
            <mxPoint x="190" y="906.5" as="sourcePoint" />
            <mxPoint x="340" y="907" as="targetPoint" />
          </mxGeometry>
        </mxCell>
        <mxCell id="STVm8akJiiikUNMicJ6v-90" value="1..*" style="edgeLabel;resizable=0;html=1;align=left;verticalAlign=bottom;" parent="STVm8akJiiikUNMicJ6v-89" connectable="0" vertex="1">
          <mxGeometry x="-1" relative="1" as="geometry" />
        </mxCell>
        <mxCell id="STVm8akJiiikUNMicJ6v-91" value="1" style="edgeLabel;resizable=0;html=1;align=right;verticalAlign=bottom;" parent="STVm8akJiiikUNMicJ6v-89" connectable="0" vertex="1">
          <mxGeometry x="1" relative="1" as="geometry" />
        </mxCell>
        <mxCell id="STVm8akJiiikUNMicJ6v-92" value="Player" style="swimlane;fontStyle=1;align=center;verticalAlign=top;childLayout=stackLayout;horizontal=1;startSize=26;horizontalStack=0;resizeParent=1;resizeParentMax=0;resizeLast=0;collapsible=1;marginBottom=0;whiteSpace=wrap;html=1;" parent="1" vertex="1">
          <mxGeometry x="25" y="970" width="160" height="34" as="geometry" />
        </mxCell>
        <mxCell id="STVm8akJiiikUNMicJ6v-93" value="" style="line;strokeWidth=1;fillColor=none;align=left;verticalAlign=middle;spacingTop=-1;spacingLeft=3;spacingRight=3;rotatable=0;labelPosition=right;points=[];portConstraint=eastwest;strokeColor=inherit;" parent="STVm8akJiiikUNMicJ6v-92" vertex="1">
          <mxGeometry y="26" width="160" height="8" as="geometry" />
        </mxCell>
        <mxCell id="STVm8akJiiikUNMicJ6v-94" value="Team" style="swimlane;fontStyle=1;align=center;verticalAlign=top;childLayout=stackLayout;horizontal=1;startSize=26;horizontalStack=0;resizeParent=1;resizeParentMax=0;resizeLast=0;collapsible=1;marginBottom=0;whiteSpace=wrap;html=1;" parent="1" vertex="1">
          <mxGeometry x="415" y="970" width="160" height="34" as="geometry" />
        </mxCell>
        <mxCell id="STVm8akJiiikUNMicJ6v-95" value="" style="line;strokeWidth=1;fillColor=none;align=left;verticalAlign=middle;spacingTop=-1;spacingLeft=3;spacingRight=3;rotatable=0;labelPosition=right;points=[];portConstraint=eastwest;strokeColor=inherit;" parent="STVm8akJiiikUNMicJ6v-94" vertex="1">
          <mxGeometry y="26" width="160" height="8" as="geometry" />
        </mxCell>
        <mxCell id="STVm8akJiiikUNMicJ6v-96" value="" style="endArrow=none;html=1;edgeStyle=orthogonalEdgeStyle;rounded=0;exitX=1;exitY=0.5;exitDx=0;exitDy=0;entryX=0;entryY=0.5;entryDx=0;entryDy=0;" parent="1" source="STVm8akJiiikUNMicJ6v-92" target="STVm8akJiiikUNMicJ6v-94" edge="1">
          <mxGeometry relative="1" as="geometry">
            <mxPoint x="195" y="986.5" as="sourcePoint" />
            <mxPoint x="345" y="987" as="targetPoint" />
          </mxGeometry>
        </mxCell>
        <mxCell id="STVm8akJiiikUNMicJ6v-97" value="Employee" style="edgeLabel;resizable=0;html=1;align=left;verticalAlign=bottom;" parent="STVm8akJiiikUNMicJ6v-96" connectable="0" vertex="1">
          <mxGeometry x="-1" relative="1" as="geometry" />
        </mxCell>
        <mxCell id="STVm8akJiiikUNMicJ6v-98" value="&lt;span style=&quot;text-align: left;&quot;&gt;Employee&lt;/span&gt;" style="edgeLabel;resizable=0;html=1;align=right;verticalAlign=bottom;" parent="STVm8akJiiikUNMicJ6v-96" connectable="0" vertex="1">
          <mxGeometry x="1" relative="1" as="geometry" />
        </mxCell>
        <mxCell id="STVm8akJiiikUNMicJ6v-99" value="" style="endArrow=none;html=1;edgeStyle=orthogonalEdgeStyle;rounded=0;entryX=0;entryY=0.5;entryDx=0;entryDy=0;" parent="1" edge="1">
          <mxGeometry relative="1" as="geometry">
            <mxPoint x="486" y="121.5" as="sourcePoint" />
            <mxPoint x="600" y="121.5" as="targetPoint" />
          </mxGeometry>
        </mxCell>
        <mxCell id="STVm8akJiiikUNMicJ6v-100" value="1" style="edgeLabel;resizable=0;html=1;align=left;verticalAlign=bottom;" parent="STVm8akJiiikUNMicJ6v-99" connectable="0" vertex="1">
          <mxGeometry x="-1" relative="1" as="geometry" />
        </mxCell>
        <mxCell id="STVm8akJiiikUNMicJ6v-101" value="1" style="edgeLabel;resizable=0;html=1;align=right;verticalAlign=bottom;" parent="STVm8akJiiikUNMicJ6v-99" connectable="0" vertex="1">
          <mxGeometry x="1" relative="1" as="geometry" />
        </mxCell>
        <mxCell id="STVm8akJiiikUNMicJ6v-102" value="Player" style="swimlane;fontStyle=1;align=center;verticalAlign=top;childLayout=stackLayout;horizontal=1;startSize=26;horizontalStack=0;resizeParent=1;resizeParentMax=0;resizeLast=0;collapsible=1;marginBottom=0;whiteSpace=wrap;html=1;" parent="1" vertex="1">
          <mxGeometry x="20" y="1135" width="160" height="34" as="geometry" />
        </mxCell>
        <mxCell id="STVm8akJiiikUNMicJ6v-103" value="" style="line;strokeWidth=1;fillColor=none;align=left;verticalAlign=middle;spacingTop=-1;spacingLeft=3;spacingRight=3;rotatable=0;labelPosition=right;points=[];portConstraint=eastwest;strokeColor=inherit;" parent="STVm8akJiiikUNMicJ6v-102" vertex="1">
          <mxGeometry y="26" width="160" height="8" as="geometry" />
        </mxCell>
        <mxCell id="STVm8akJiiikUNMicJ6v-104" value="Team" style="swimlane;fontStyle=1;align=center;verticalAlign=top;childLayout=stackLayout;horizontal=1;startSize=26;horizontalStack=0;resizeParent=1;resizeParentMax=0;resizeLast=0;collapsible=1;marginBottom=0;whiteSpace=wrap;html=1;" parent="1" vertex="1">
          <mxGeometry x="415" y="1060" width="160" height="34" as="geometry" />
        </mxCell>
        <mxCell id="STVm8akJiiikUNMicJ6v-105" value="" style="line;strokeWidth=1;fillColor=none;align=left;verticalAlign=middle;spacingTop=-1;spacingLeft=3;spacingRight=3;rotatable=0;labelPosition=right;points=[];portConstraint=eastwest;strokeColor=inherit;" parent="STVm8akJiiikUNMicJ6v-104" vertex="1">
          <mxGeometry y="26" width="160" height="8" as="geometry" />
        </mxCell>
        <mxCell id="STVm8akJiiikUNMicJ6v-109" value="Team" style="swimlane;fontStyle=1;align=center;verticalAlign=top;childLayout=stackLayout;horizontal=1;startSize=26;horizontalStack=0;resizeParent=1;resizeParentMax=0;resizeLast=0;collapsible=1;marginBottom=0;whiteSpace=wrap;html=1;" parent="1" vertex="1">
          <mxGeometry x="414" y="1210" width="160" height="34" as="geometry" />
        </mxCell>
        <mxCell id="STVm8akJiiikUNMicJ6v-110" value="" style="line;strokeWidth=1;fillColor=none;align=left;verticalAlign=middle;spacingTop=-1;spacingLeft=3;spacingRight=3;rotatable=0;labelPosition=right;points=[];portConstraint=eastwest;strokeColor=inherit;" parent="STVm8akJiiikUNMicJ6v-109" vertex="1">
          <mxGeometry y="26" width="160" height="8" as="geometry" />
        </mxCell>
        <mxCell id="STVm8akJiiikUNMicJ6v-111" value="Team" style="swimlane;fontStyle=1;align=center;verticalAlign=top;childLayout=stackLayout;horizontal=1;startSize=26;horizontalStack=0;resizeParent=1;resizeParentMax=0;resizeLast=0;collapsible=1;marginBottom=0;whiteSpace=wrap;html=1;" parent="1" vertex="1">
          <mxGeometry x="414" y="1135" width="160" height="34" as="geometry" />
        </mxCell>
        <mxCell id="STVm8akJiiikUNMicJ6v-112" value="" style="line;strokeWidth=1;fillColor=none;align=left;verticalAlign=middle;spacingTop=-1;spacingLeft=3;spacingRight=3;rotatable=0;labelPosition=right;points=[];portConstraint=eastwest;strokeColor=inherit;" parent="STVm8akJiiikUNMicJ6v-111" vertex="1">
          <mxGeometry y="26" width="160" height="8" as="geometry" />
        </mxCell>
        <mxCell id="STVm8akJiiikUNMicJ6v-116" value="" style="endArrow=none;html=1;rounded=0;entryX=0;entryY=0.5;entryDx=0;entryDy=0;exitX=1;exitY=0.5;exitDx=0;exitDy=0;" parent="1" source="STVm8akJiiikUNMicJ6v-102" target="STVm8akJiiikUNMicJ6v-104" edge="1">
          <mxGeometry width="50" height="50" relative="1" as="geometry">
            <mxPoint x="390" y="1360" as="sourcePoint" />
            <mxPoint x="440" y="1310" as="targetPoint" />
          </mxGeometry>
        </mxCell>
        <mxCell id="STVm8akJiiikUNMicJ6v-117" value="" style="endArrow=none;html=1;rounded=0;entryX=0;entryY=0.5;entryDx=0;entryDy=0;exitX=1;exitY=0.5;exitDx=0;exitDy=0;" parent="1" source="STVm8akJiiikUNMicJ6v-102" target="STVm8akJiiikUNMicJ6v-109" edge="1">
          <mxGeometry width="50" height="50" relative="1" as="geometry">
            <mxPoint x="145" y="1275" as="sourcePoint" />
            <mxPoint x="380" y="1200" as="targetPoint" />
          </mxGeometry>
        </mxCell>
        <mxCell id="STVm8akJiiikUNMicJ6v-118" value="" style="endArrow=none;html=1;rounded=0;entryX=0;entryY=0.5;entryDx=0;entryDy=0;exitX=1;exitY=0.5;exitDx=0;exitDy=0;" parent="1" source="STVm8akJiiikUNMicJ6v-102" target="STVm8akJiiikUNMicJ6v-111" edge="1">
          <mxGeometry width="50" height="50" relative="1" as="geometry">
            <mxPoint x="190" y="1162" as="sourcePoint" />
            <mxPoint x="424" y="1237" as="targetPoint" />
          </mxGeometry>
        </mxCell>
        <mxCell id="STVm8akJiiikUNMicJ6v-119" value="1" style="text;html=1;align=center;verticalAlign=middle;resizable=0;points=[];autosize=1;strokeColor=none;fillColor=none;" parent="1" vertex="1">
          <mxGeometry x="175" y="1118" width="30" height="30" as="geometry" />
        </mxCell>
        <mxCell id="STVm8akJiiikUNMicJ6v-120" value="1..5" style="text;html=1;align=center;verticalAlign=middle;resizable=0;points=[];autosize=1;strokeColor=none;fillColor=none;" parent="1" vertex="1">
          <mxGeometry x="370" y="1118" width="40" height="30" as="geometry" />
        </mxCell>
        <mxCell id="STVm8akJiiikUNMicJ6v-121" value="1..3" style="text;html=1;align=center;verticalAlign=middle;resizable=0;points=[];autosize=1;strokeColor=none;fillColor=none;" parent="1" vertex="1">
          <mxGeometry x="360" y="1058" width="40" height="30" as="geometry" />
        </mxCell>
        <mxCell id="STVm8akJiiikUNMicJ6v-122" value="1..1" style="text;html=1;align=center;verticalAlign=middle;resizable=0;points=[];autosize=1;strokeColor=none;fillColor=none;" parent="1" vertex="1">
          <mxGeometry x="360" y="1188" width="40" height="30" as="geometry" />
        </mxCell>
        <mxCell id="STVm8akJiiikUNMicJ6v-123" value="Player" style="swimlane;fontStyle=1;align=center;verticalAlign=top;childLayout=stackLayout;horizontal=1;startSize=26;horizontalStack=0;resizeParent=1;resizeParentMax=0;resizeLast=0;collapsible=1;marginBottom=0;whiteSpace=wrap;html=1;" parent="1" vertex="1">
          <mxGeometry x="20" y="1420" width="160" height="34" as="geometry" />
        </mxCell>
        <mxCell id="STVm8akJiiikUNMicJ6v-124" value="" style="line;strokeWidth=1;fillColor=none;align=left;verticalAlign=middle;spacingTop=-1;spacingLeft=3;spacingRight=3;rotatable=0;labelPosition=right;points=[];portConstraint=eastwest;strokeColor=inherit;" parent="STVm8akJiiikUNMicJ6v-123" vertex="1">
          <mxGeometry y="26" width="160" height="8" as="geometry" />
        </mxCell>
        <mxCell id="STVm8akJiiikUNMicJ6v-125" value="Player" style="swimlane;fontStyle=1;align=center;verticalAlign=top;childLayout=stackLayout;horizontal=1;startSize=26;horizontalStack=0;resizeParent=1;resizeParentMax=0;resizeLast=0;collapsible=1;marginBottom=0;whiteSpace=wrap;html=1;" parent="1" vertex="1">
          <mxGeometry x="370" y="1420" width="160" height="34" as="geometry" />
        </mxCell>
        <mxCell id="STVm8akJiiikUNMicJ6v-126" value="" style="line;strokeWidth=1;fillColor=none;align=left;verticalAlign=middle;spacingTop=-1;spacingLeft=3;spacingRight=3;rotatable=0;labelPosition=right;points=[];portConstraint=eastwest;strokeColor=inherit;" parent="STVm8akJiiikUNMicJ6v-125" vertex="1">
          <mxGeometry y="26" width="160" height="8" as="geometry" />
        </mxCell>
        <mxCell id="STVm8akJiiikUNMicJ6v-127" value="Player" style="swimlane;fontStyle=1;align=center;verticalAlign=top;childLayout=stackLayout;horizontal=1;startSize=26;horizontalStack=0;resizeParent=1;resizeParentMax=0;resizeLast=0;collapsible=1;marginBottom=0;whiteSpace=wrap;html=1;" parent="1" vertex="1">
          <mxGeometry x="200" y="1560" width="160" height="34" as="geometry" />
        </mxCell>
        <mxCell id="STVm8akJiiikUNMicJ6v-128" value="" style="line;strokeWidth=1;fillColor=none;align=left;verticalAlign=middle;spacingTop=-1;spacingLeft=3;spacingRight=3;rotatable=0;labelPosition=right;points=[];portConstraint=eastwest;strokeColor=inherit;" parent="STVm8akJiiikUNMicJ6v-127" vertex="1">
          <mxGeometry y="26" width="160" height="8" as="geometry" />
        </mxCell>
        <mxCell id="STVm8akJiiikUNMicJ6v-129" value="" style="endArrow=none;html=1;rounded=0;exitX=1;exitY=0.25;exitDx=0;exitDy=0;entryX=0;entryY=0.25;entryDx=0;entryDy=0;" parent="1" source="STVm8akJiiikUNMicJ6v-123" target="STVm8akJiiikUNMicJ6v-125" edge="1">
          <mxGeometry width="50" height="50" relative="1" as="geometry">
            <mxPoint x="390" y="1260" as="sourcePoint" />
            <mxPoint x="440" y="1210" as="targetPoint" />
          </mxGeometry>
        </mxCell>
        <mxCell id="STVm8akJiiikUNMicJ6v-130" value="" style="endArrow=none;html=1;rounded=0;entryX=0.5;entryY=1;entryDx=0;entryDy=0;exitX=0.5;exitY=0;exitDx=0;exitDy=0;" parent="1" source="STVm8akJiiikUNMicJ6v-127" target="STVm8akJiiikUNMicJ6v-125" edge="1">
          <mxGeometry width="50" height="50" relative="1" as="geometry">
            <mxPoint x="390" y="1460" as="sourcePoint" />
            <mxPoint x="440" y="1410" as="targetPoint" />
          </mxGeometry>
        </mxCell>
        <mxCell id="STVm8akJiiikUNMicJ6v-131" value="" style="endArrow=none;html=1;rounded=0;entryX=0.5;entryY=1;entryDx=0;entryDy=0;" parent="1" target="STVm8akJiiikUNMicJ6v-123" edge="1">
          <mxGeometry width="50" height="50" relative="1" as="geometry">
            <mxPoint x="280" y="1560" as="sourcePoint" />
            <mxPoint x="460" y="1464" as="targetPoint" />
          </mxGeometry>
        </mxCell>
        <mxCell id="STVm8akJiiikUNMicJ6v-132" value="1" style="text;html=1;align=center;verticalAlign=middle;resizable=0;points=[];autosize=1;strokeColor=none;fillColor=none;" parent="1" vertex="1">
          <mxGeometry x="125" y="1488" width="30" height="30" as="geometry" />
        </mxCell>
        <mxCell id="STVm8akJiiikUNMicJ6v-133" value="1" style="text;html=1;align=center;verticalAlign=middle;resizable=0;points=[];autosize=1;strokeColor=none;fillColor=none;" parent="1" vertex="1">
          <mxGeometry x="355" y="1518" width="30" height="30" as="geometry" />
        </mxCell>
        <mxCell id="STVm8akJiiikUNMicJ6v-134" value="Teach" style="text;html=1;align=center;verticalAlign=middle;resizable=0;points=[];autosize=1;strokeColor=none;fillColor=none;" parent="1" vertex="1">
          <mxGeometry x="300" y="1398" width="60" height="30" as="geometry" />
        </mxCell>
        <mxCell id="STVm8akJiiikUNMicJ6v-135" value="Learn" style="text;html=1;align=center;verticalAlign=middle;resizable=0;points=[];autosize=1;strokeColor=none;fillColor=none;" parent="1" vertex="1">
          <mxGeometry x="180" y="1438" width="50" height="30" as="geometry" />
        </mxCell>
        <mxCell id="STVm8akJiiikUNMicJ6v-136" value="집합관계, 복합관계" style="text;html=1;align=left;verticalAlign=middle;resizable=0;points=[];autosize=1;strokeColor=none;fillColor=none;" parent="1" vertex="1">
          <mxGeometry x="25" y="1700" width="130" height="30" as="geometry" />
        </mxCell>
        <mxCell id="STVm8akJiiikUNMicJ6v-137" value="" style="rounded=1;whiteSpace=wrap;html=1;" parent="1" vertex="1">
          <mxGeometry x="20" y="1754" width="360" height="186" as="geometry" />
        </mxCell>
        <mxCell id="STVm8akJiiikUNMicJ6v-138" value="" style="endArrow=none;html=1;rounded=0;exitX=0.964;exitY=0.011;exitDx=0;exitDy=0;exitPerimeter=0;" parent="1" source="STVm8akJiiikUNMicJ6v-137" edge="1">
          <mxGeometry width="50" height="50" relative="1" as="geometry">
            <mxPoint x="360" y="1779" as="sourcePoint" />
            <mxPoint x="410" y="1729" as="targetPoint" />
          </mxGeometry>
        </mxCell>
        <mxCell id="STVm8akJiiikUNMicJ6v-139" value="연관관계 : 객체들이 서로 개념적으로 연결됨" style="text;html=1;align=center;verticalAlign=middle;resizable=0;points=[];autosize=1;strokeColor=none;fillColor=none;" parent="1" vertex="1">
          <mxGeometry x="310" y="1698" width="260" height="30" as="geometry" />
        </mxCell>
        <mxCell id="STVm8akJiiikUNMicJ6v-140" value="" style="rounded=1;whiteSpace=wrap;html=1;" parent="1" vertex="1">
          <mxGeometry x="65" y="1800" width="270" height="106" as="geometry" />
        </mxCell>
        <mxCell id="STVm8akJiiikUNMicJ6v-141" value="" style="endArrow=none;html=1;rounded=0;exitX=1;exitY=0.5;exitDx=0;exitDy=0;" parent="1" source="STVm8akJiiikUNMicJ6v-140" edge="1">
          <mxGeometry width="50" height="50" relative="1" as="geometry">
            <mxPoint x="390" y="1960" as="sourcePoint" />
            <mxPoint x="440" y="1820" as="targetPoint" />
          </mxGeometry>
        </mxCell>
        <mxCell id="STVm8akJiiikUNMicJ6v-142" value="집합관계 : 독립적인 구성 요소로 연관됨" style="text;html=1;align=center;verticalAlign=middle;resizable=0;points=[];autosize=1;strokeColor=none;fillColor=none;" parent="1" vertex="1">
          <mxGeometry x="370" y="1790" width="240" height="30" as="geometry" />
        </mxCell>
        <mxCell id="STVm8akJiiikUNMicJ6v-145" value="" style="rounded=1;whiteSpace=wrap;html=1;" parent="1" vertex="1">
          <mxGeometry x="97.5" y="1830" width="185" height="60" as="geometry" />
        </mxCell>
        <mxCell id="STVm8akJiiikUNMicJ6v-146" value="" style="endArrow=none;html=1;rounded=0;exitX=1;exitY=0.75;exitDx=0;exitDy=0;" parent="1" source="STVm8akJiiikUNMicJ6v-145" edge="1">
          <mxGeometry width="50" height="50" relative="1" as="geometry">
            <mxPoint x="390" y="1960" as="sourcePoint" />
            <mxPoint x="440" y="1940" as="targetPoint" />
          </mxGeometry>
        </mxCell>
        <mxCell id="STVm8akJiiikUNMicJ6v-147" value="복합관계 : 영구적이고 강한 연관 관계로 구성됨" style="text;html=1;align=center;verticalAlign=middle;resizable=0;points=[];autosize=1;strokeColor=none;fillColor=none;" parent="1" vertex="1">
          <mxGeometry x="385" y="1940" width="270" height="30" as="geometry" />
        </mxCell>
        <mxCell id="STVm8akJiiikUNMicJ6v-148" value="자동차" style="rounded=0;whiteSpace=wrap;html=1;" parent="1" vertex="1">
          <mxGeometry x="335" y="2030" width="120" height="60" as="geometry" />
        </mxCell>
        <mxCell id="STVm8akJiiikUNMicJ6v-149" value="휠" style="rounded=0;whiteSpace=wrap;html=1;" parent="1" vertex="1">
          <mxGeometry x="335" y="2120" width="120" height="60" as="geometry" />
        </mxCell>
        <mxCell id="STVm8akJiiikUNMicJ6v-150" value="엔진" style="rounded=0;whiteSpace=wrap;html=1;" parent="1" vertex="1">
          <mxGeometry x="180" y="2120" width="120" height="60" as="geometry" />
        </mxCell>
        <mxCell id="STVm8akJiiikUNMicJ6v-151" value="차대&lt;span style=&quot;color: rgba(0, 0, 0, 0); font-family: monospace; font-size: 0px; text-align: start; text-wrap: nowrap;&quot;&gt;%3CmxGraphModel%3E%3Croot%3E%3CmxCell%20id%3D%220%22%2F%3E%3CmxCell%20id%3D%221%22%20parent%3D%220%22%2F%3E%3CmxCell%20id%3D%222%22%20value%3D%22%ED%9C%A0%22%20style%3D%22rounded%3D0%3BwhiteSpace%3Dwrap%3Bhtml%3D1%3B%22%20vertex%3D%221%22%20parent%3D%221%22%3E%3CmxGeometry%20x%3D%22335%22%20y%3D%222120%22%20width%3D%22120%22%20height%3D%2260%22%20as%3D%22geometry%22%2F%3E%3C%2FmxCell%3E%3C%2Froot%3E%3C%2FmxGraphModel%3E&lt;/span&gt;" style="rounded=0;whiteSpace=wrap;html=1;" parent="1" vertex="1">
          <mxGeometry x="520" y="2120" width="120" height="60" as="geometry" />
        </mxCell>
        <mxCell id="STVm8akJiiikUNMicJ6v-152" value="캬뷰레이터" style="rounded=0;whiteSpace=wrap;html=1;" parent="1" vertex="1">
          <mxGeometry x="30" y="2230" width="120" height="60" as="geometry" />
        </mxCell>
        <mxCell id="STVm8akJiiikUNMicJ6v-153" value="피스톤" style="rounded=0;whiteSpace=wrap;html=1;" parent="1" vertex="1">
          <mxGeometry x="180" y="2230" width="120" height="60" as="geometry" />
        </mxCell>
        <mxCell id="STVm8akJiiikUNMicJ6v-154" value="플러그" style="rounded=0;whiteSpace=wrap;html=1;" parent="1" vertex="1">
          <mxGeometry x="335" y="2230" width="120" height="60" as="geometry" />
        </mxCell>
        <mxCell id="STVm8akJiiikUNMicJ6v-155" value="" style="endArrow=diamondThin;endFill=0;endSize=24;html=1;rounded=0;exitX=0.5;exitY=0;exitDx=0;exitDy=0;entryX=0;entryY=1;entryDx=0;entryDy=0;" parent="1" source="STVm8akJiiikUNMicJ6v-150" target="STVm8akJiiikUNMicJ6v-148" edge="1">
          <mxGeometry width="160" relative="1" as="geometry">
            <mxPoint x="330" y="2030" as="sourcePoint" />
            <mxPoint x="490" y="2030" as="targetPoint" />
          </mxGeometry>
        </mxCell>
        <mxCell id="STVm8akJiiikUNMicJ6v-156" value="" style="endArrow=diamondThin;endFill=0;endSize=24;html=1;rounded=0;exitX=0.5;exitY=0;exitDx=0;exitDy=0;entryX=0.5;entryY=1;entryDx=0;entryDy=0;" parent="1" source="STVm8akJiiikUNMicJ6v-149" target="STVm8akJiiikUNMicJ6v-148" edge="1">
          <mxGeometry width="160" relative="1" as="geometry">
            <mxPoint x="250" y="2130" as="sourcePoint" />
            <mxPoint x="345" y="2100" as="targetPoint" />
          </mxGeometry>
        </mxCell>
        <mxCell id="STVm8akJiiikUNMicJ6v-157" value="" style="endArrow=diamondThin;endFill=0;endSize=24;html=1;rounded=0;exitX=0.5;exitY=0;exitDx=0;exitDy=0;entryX=1;entryY=1;entryDx=0;entryDy=0;" parent="1" source="STVm8akJiiikUNMicJ6v-151" target="STVm8akJiiikUNMicJ6v-148" edge="1">
          <mxGeometry width="160" relative="1" as="geometry">
            <mxPoint x="405" y="2130" as="sourcePoint" />
            <mxPoint x="405" y="2100" as="targetPoint" />
          </mxGeometry>
        </mxCell>
        <mxCell id="STVm8akJiiikUNMicJ6v-158" value="" style="endArrow=diamondThin;endFill=1;endSize=24;html=1;rounded=0;entryX=1;entryY=1;entryDx=0;entryDy=0;exitX=0.5;exitY=0;exitDx=0;exitDy=0;" parent="1" source="STVm8akJiiikUNMicJ6v-154" target="STVm8akJiiikUNMicJ6v-150" edge="1">
          <mxGeometry width="160" relative="1" as="geometry">
            <mxPoint x="330" y="2330" as="sourcePoint" />
            <mxPoint x="490" y="2330" as="targetPoint" />
          </mxGeometry>
        </mxCell>
        <mxCell id="STVm8akJiiikUNMicJ6v-159" value="" style="endArrow=diamondThin;endFill=1;endSize=24;html=1;rounded=0;entryX=0;entryY=1;entryDx=0;entryDy=0;exitX=0.5;exitY=0;exitDx=0;exitDy=0;" parent="1" source="STVm8akJiiikUNMicJ6v-152" target="STVm8akJiiikUNMicJ6v-150" edge="1">
          <mxGeometry width="160" relative="1" as="geometry">
            <mxPoint x="405" y="2240" as="sourcePoint" />
            <mxPoint x="310" y="2190" as="targetPoint" />
          </mxGeometry>
        </mxCell>
        <mxCell id="STVm8akJiiikUNMicJ6v-160" value="" style="endArrow=diamondThin;endFill=1;endSize=24;html=1;rounded=0;entryX=0.5;entryY=1;entryDx=0;entryDy=0;exitX=0.5;exitY=0;exitDx=0;exitDy=0;" parent="1" source="STVm8akJiiikUNMicJ6v-153" target="STVm8akJiiikUNMicJ6v-150" edge="1">
          <mxGeometry width="160" relative="1" as="geometry">
            <mxPoint x="100" y="2240" as="sourcePoint" />
            <mxPoint x="190" y="2190" as="targetPoint" />
          </mxGeometry>
        </mxCell>
        <mxCell id="STVm8akJiiikUNMicJ6v-161" value="Professor" style="swimlane;fontStyle=1;align=center;verticalAlign=top;childLayout=stackLayout;horizontal=1;startSize=26;horizontalStack=0;resizeParent=1;resizeParentMax=0;resizeLast=0;collapsible=1;marginBottom=0;whiteSpace=wrap;html=1;" parent="1" vertex="1">
          <mxGeometry x="25" y="2390" width="160" height="86" as="geometry" />
        </mxCell>
        <mxCell id="STVm8akJiiikUNMicJ6v-162" value="pid : int" style="text;strokeColor=none;fillColor=none;align=left;verticalAlign=top;spacingLeft=4;spacingRight=4;overflow=hidden;rotatable=0;points=[[0,0.5],[1,0.5]];portConstraint=eastwest;whiteSpace=wrap;html=1;" parent="STVm8akJiiikUNMicJ6v-161" vertex="1">
          <mxGeometry y="26" width="160" height="26" as="geometry" />
        </mxCell>
        <mxCell id="STVm8akJiiikUNMicJ6v-163" value="" style="line;strokeWidth=1;fillColor=none;align=left;verticalAlign=middle;spacingTop=-1;spacingLeft=3;spacingRight=3;rotatable=0;labelPosition=right;points=[];portConstraint=eastwest;strokeColor=inherit;" parent="STVm8akJiiikUNMicJ6v-161" vertex="1">
          <mxGeometry y="52" width="160" height="8" as="geometry" />
        </mxCell>
        <mxCell id="STVm8akJiiikUNMicJ6v-164" value="getPayMent" style="text;strokeColor=none;fillColor=none;align=left;verticalAlign=top;spacingLeft=4;spacingRight=4;overflow=hidden;rotatable=0;points=[[0,0.5],[1,0.5]];portConstraint=eastwest;whiteSpace=wrap;html=1;" parent="STVm8akJiiikUNMicJ6v-161" vertex="1">
          <mxGeometry y="60" width="160" height="26" as="geometry" />
        </mxCell>
        <mxCell id="STVm8akJiiikUNMicJ6v-166" value="Person" style="swimlane;fontStyle=1;align=center;verticalAlign=top;childLayout=stackLayout;horizontal=1;startSize=26;horizontalStack=0;resizeParent=1;resizeParentMax=0;resizeLast=0;collapsible=1;marginBottom=0;whiteSpace=wrap;html=1;" parent="1" vertex="1">
          <mxGeometry x="265" y="2390" width="160" height="86" as="geometry" />
        </mxCell>
        <mxCell id="STVm8akJiiikUNMicJ6v-167" value="name : String" style="text;strokeColor=none;fillColor=none;align=left;verticalAlign=top;spacingLeft=4;spacingRight=4;overflow=hidden;rotatable=0;points=[[0,0.5],[1,0.5]];portConstraint=eastwest;whiteSpace=wrap;html=1;" parent="STVm8akJiiikUNMicJ6v-166" vertex="1">
          <mxGeometry y="26" width="160" height="26" as="geometry" />
        </mxCell>
        <mxCell id="STVm8akJiiikUNMicJ6v-168" value="" style="line;strokeWidth=1;fillColor=none;align=left;verticalAlign=middle;spacingTop=-1;spacingLeft=3;spacingRight=3;rotatable=0;labelPosition=right;points=[];portConstraint=eastwest;strokeColor=inherit;" parent="STVm8akJiiikUNMicJ6v-166" vertex="1">
          <mxGeometry y="52" width="160" height="8" as="geometry" />
        </mxCell>
        <mxCell id="STVm8akJiiikUNMicJ6v-169" value="+getAge" style="text;strokeColor=none;fillColor=none;align=left;verticalAlign=top;spacingLeft=4;spacingRight=4;overflow=hidden;rotatable=0;points=[[0,0.5],[1,0.5]];portConstraint=eastwest;whiteSpace=wrap;html=1;" parent="STVm8akJiiikUNMicJ6v-166" vertex="1">
          <mxGeometry y="60" width="160" height="26" as="geometry" />
        </mxCell>
        <mxCell id="STVm8akJiiikUNMicJ6v-170" value="Student" style="swimlane;fontStyle=1;align=center;verticalAlign=top;childLayout=stackLayout;horizontal=1;startSize=26;horizontalStack=0;resizeParent=1;resizeParentMax=0;resizeLast=0;collapsible=1;marginBottom=0;whiteSpace=wrap;html=1;" parent="1" vertex="1">
          <mxGeometry x="520" y="2390" width="160" height="86" as="geometry" />
        </mxCell>
        <mxCell id="STVm8akJiiikUNMicJ6v-171" value="sid : int" style="text;strokeColor=none;fillColor=none;align=left;verticalAlign=top;spacingLeft=4;spacingRight=4;overflow=hidden;rotatable=0;points=[[0,0.5],[1,0.5]];portConstraint=eastwest;whiteSpace=wrap;html=1;" parent="STVm8akJiiikUNMicJ6v-170" vertex="1">
          <mxGeometry y="26" width="160" height="26" as="geometry" />
        </mxCell>
        <mxCell id="STVm8akJiiikUNMicJ6v-172" value="" style="line;strokeWidth=1;fillColor=none;align=left;verticalAlign=middle;spacingTop=-1;spacingLeft=3;spacingRight=3;rotatable=0;labelPosition=right;points=[];portConstraint=eastwest;strokeColor=inherit;" parent="STVm8akJiiikUNMicJ6v-170" vertex="1">
          <mxGeometry y="52" width="160" height="8" as="geometry" />
        </mxCell>
        <mxCell id="STVm8akJiiikUNMicJ6v-173" value="+getGrade" style="text;strokeColor=none;fillColor=none;align=left;verticalAlign=top;spacingLeft=4;spacingRight=4;overflow=hidden;rotatable=0;points=[[0,0.5],[1,0.5]];portConstraint=eastwest;whiteSpace=wrap;html=1;" parent="STVm8akJiiikUNMicJ6v-170" vertex="1">
          <mxGeometry y="60" width="160" height="26" as="geometry" />
        </mxCell>
        <mxCell id="STVm8akJiiikUNMicJ6v-174" value="" style="endArrow=block;endFill=0;endSize=12;html=1;rounded=0;entryX=1;entryY=0.5;entryDx=0;entryDy=0;exitX=0;exitY=0.5;exitDx=0;exitDy=0;" parent="1" source="STVm8akJiiikUNMicJ6v-171" target="STVm8akJiiikUNMicJ6v-167" edge="1">
          <mxGeometry width="160" relative="1" as="geometry">
            <mxPoint x="334" y="2570" as="sourcePoint" />
            <mxPoint x="494" y="2570" as="targetPoint" />
          </mxGeometry>
        </mxCell>
        <mxCell id="STVm8akJiiikUNMicJ6v-175" value="" style="endArrow=block;endFill=0;endSize=12;html=1;rounded=0;entryX=0;entryY=0.5;entryDx=0;entryDy=0;exitX=1;exitY=0.5;exitDx=0;exitDy=0;" parent="1" source="STVm8akJiiikUNMicJ6v-162" target="STVm8akJiiikUNMicJ6v-167" edge="1">
          <mxGeometry width="160" relative="1" as="geometry">
            <mxPoint x="530" y="2439" as="sourcePoint" />
            <mxPoint x="435" y="2439" as="targetPoint" />
          </mxGeometry>
        </mxCell>
        <mxCell id="STVm8akJiiikUNMicJ6v-176" value="Association" style="swimlane;fontStyle=1;align=center;verticalAlign=top;childLayout=stackLayout;horizontal=1;startSize=26;horizontalStack=0;resizeParent=1;resizeParentMax=0;resizeLast=0;collapsible=1;marginBottom=0;whiteSpace=wrap;html=1;" parent="1" vertex="1">
          <mxGeometry x="270" y="2520" width="160" height="94" as="geometry" />
        </mxCell>
        <mxCell id="STVm8akJiiikUNMicJ6v-177" value="p1 : Professor&lt;div&gt;s1 : Student&amp;nbsp;&lt;/div&gt;" style="text;strokeColor=none;fillColor=none;align=left;verticalAlign=top;spacingLeft=4;spacingRight=4;overflow=hidden;rotatable=0;points=[[0,0.5],[1,0.5]];portConstraint=eastwest;whiteSpace=wrap;html=1;" parent="STVm8akJiiikUNMicJ6v-176" vertex="1">
          <mxGeometry y="26" width="160" height="34" as="geometry" />
        </mxCell>
        <mxCell id="STVm8akJiiikUNMicJ6v-178" value="" style="line;strokeWidth=1;fillColor=none;align=left;verticalAlign=middle;spacingTop=-1;spacingLeft=3;spacingRight=3;rotatable=0;labelPosition=right;points=[];portConstraint=eastwest;strokeColor=inherit;" parent="STVm8akJiiikUNMicJ6v-176" vertex="1">
          <mxGeometry y="60" width="160" height="8" as="geometry" />
        </mxCell>
        <mxCell id="STVm8akJiiikUNMicJ6v-179" value="+main" style="text;strokeColor=none;fillColor=none;align=left;verticalAlign=top;spacingLeft=4;spacingRight=4;overflow=hidden;rotatable=0;points=[[0,0.5],[1,0.5]];portConstraint=eastwest;whiteSpace=wrap;html=1;" parent="STVm8akJiiikUNMicJ6v-176" vertex="1">
          <mxGeometry y="68" width="160" height="26" as="geometry" />
        </mxCell>
        <mxCell id="STVm8akJiiikUNMicJ6v-180" value="" style="endArrow=none;dashed=1;html=1;dashPattern=1 3;strokeWidth=2;rounded=0;entryX=0.5;entryY=1.115;entryDx=0;entryDy=0;entryPerimeter=0;exitX=0;exitY=0.808;exitDx=0;exitDy=0;exitPerimeter=0;" parent="1" source="STVm8akJiiikUNMicJ6v-177" target="STVm8akJiiikUNMicJ6v-164" edge="1">
          <mxGeometry width="50" height="50" relative="1" as="geometry">
            <mxPoint x="390" y="2360" as="sourcePoint" />
            <mxPoint x="440" y="2310" as="targetPoint" />
          </mxGeometry>
        </mxCell>
        <mxCell id="STVm8akJiiikUNMicJ6v-181" value="" style="endArrow=none;dashed=1;html=1;dashPattern=1 3;strokeWidth=2;rounded=0;entryX=1;entryY=0.5;entryDx=0;entryDy=0;exitX=0.519;exitY=1.115;exitDx=0;exitDy=0;exitPerimeter=0;" parent="1" source="STVm8akJiiikUNMicJ6v-173" target="STVm8akJiiikUNMicJ6v-177" edge="1">
          <mxGeometry width="50" height="50" relative="1" as="geometry">
            <mxPoint x="635" y="2607" as="sourcePoint" />
            <mxPoint x="470" y="2519" as="targetPoint" />
          </mxGeometry>
        </mxCell>
        <mxCell id="STVm8akJiiikUNMicJ6v-182" value="&lt;li&gt;&lt;strong&gt;일반화 관계&lt;/strong&gt;는 특정 사례나 개념을 통해 더 넓은 범위의 원칙이나 패턴을 도출하는 관계입니다.&lt;/li&gt;&lt;li&gt;&lt;strong&gt;연관 관계&lt;/strong&gt;는 두 변수나 개념 간의 상관관계를 설명하며, 서로 간의 관계가 어떻게 연결되어 있는지를 보여줍니다.&lt;/li&gt;" style="text;html=1;align=left;verticalAlign=middle;resizable=0;points=[];autosize=1;strokeColor=none;fillColor=none;" parent="1" vertex="1">
          <mxGeometry x="25" y="2310" width="630" height="40" as="geometry" />
        </mxCell>
        <mxCell id="STVm8akJiiikUNMicJ6v-188" value="Gcompany" style="swimlane;fontStyle=1;align=center;verticalAlign=top;childLayout=stackLayout;horizontal=1;startSize=26;horizontalStack=0;resizeParent=1;resizeParentMax=0;resizeLast=0;collapsible=1;marginBottom=0;whiteSpace=wrap;html=1;" parent="1" vertex="1">
          <mxGeometry x="45" y="2880" width="160" height="86" as="geometry" />
        </mxCell>
        <mxCell id="STVm8akJiiikUNMicJ6v-189" value="number : int" style="text;strokeColor=none;fillColor=none;align=left;verticalAlign=top;spacingLeft=4;spacingRight=4;overflow=hidden;rotatable=0;points=[[0,0.5],[1,0.5]];portConstraint=eastwest;whiteSpace=wrap;html=1;" parent="STVm8akJiiikUNMicJ6v-188" vertex="1">
          <mxGeometry y="26" width="160" height="26" as="geometry" />
        </mxCell>
        <mxCell id="STVm8akJiiikUNMicJ6v-190" value="" style="line;strokeWidth=1;fillColor=none;align=left;verticalAlign=middle;spacingTop=-1;spacingLeft=3;spacingRight=3;rotatable=0;labelPosition=right;points=[];portConstraint=eastwest;strokeColor=inherit;" parent="STVm8akJiiikUNMicJ6v-188" vertex="1">
          <mxGeometry y="52" width="160" height="8" as="geometry" />
        </mxCell>
        <mxCell id="STVm8akJiiikUNMicJ6v-191" value="localNumber() : void" style="text;strokeColor=none;fillColor=none;align=left;verticalAlign=top;spacingLeft=4;spacingRight=4;overflow=hidden;rotatable=0;points=[[0,0.5],[1,0.5]];portConstraint=eastwest;whiteSpace=wrap;html=1;" parent="STVm8akJiiikUNMicJ6v-188" vertex="1">
          <mxGeometry y="60" width="160" height="26" as="geometry" />
        </mxCell>
        <mxCell id="STVm8akJiiikUNMicJ6v-192" value="Company" style="swimlane;fontStyle=1;align=center;verticalAlign=top;childLayout=stackLayout;horizontal=1;startSize=26;horizontalStack=0;resizeParent=1;resizeParentMax=0;resizeLast=0;collapsible=1;marginBottom=0;whiteSpace=wrap;html=1;" parent="1" vertex="1">
          <mxGeometry x="265" y="3020" width="160" height="124" as="geometry" />
        </mxCell>
        <mxCell id="STVm8akJiiikUNMicJ6v-193" value="g : Gcompany&lt;div&gt;h : Hcompany&lt;/div&gt;&lt;div&gt;s : Scompany&lt;/div&gt;" style="text;strokeColor=none;fillColor=none;align=left;verticalAlign=top;spacingLeft=4;spacingRight=4;overflow=hidden;rotatable=0;points=[[0,0.5],[1,0.5]];portConstraint=eastwest;whiteSpace=wrap;html=1;" parent="STVm8akJiiikUNMicJ6v-192" vertex="1">
          <mxGeometry y="26" width="160" height="64" as="geometry" />
        </mxCell>
        <mxCell id="STVm8akJiiikUNMicJ6v-194" value="" style="line;strokeWidth=1;fillColor=none;align=left;verticalAlign=middle;spacingTop=-1;spacingLeft=3;spacingRight=3;rotatable=0;labelPosition=right;points=[];portConstraint=eastwest;strokeColor=inherit;" parent="STVm8akJiiikUNMicJ6v-192" vertex="1">
          <mxGeometry y="90" width="160" height="8" as="geometry" />
        </mxCell>
        <mxCell id="STVm8akJiiikUNMicJ6v-195" value="main() : void" style="text;strokeColor=none;fillColor=none;align=left;verticalAlign=top;spacingLeft=4;spacingRight=4;overflow=hidden;rotatable=0;points=[[0,0.5],[1,0.5]];portConstraint=eastwest;whiteSpace=wrap;html=1;" parent="STVm8akJiiikUNMicJ6v-192" vertex="1">
          <mxGeometry y="98" width="160" height="26" as="geometry" />
        </mxCell>
        <mxCell id="STVm8akJiiikUNMicJ6v-196" value="Hcompany" style="swimlane;fontStyle=1;align=center;verticalAlign=top;childLayout=stackLayout;horizontal=1;startSize=26;horizontalStack=0;resizeParent=1;resizeParentMax=0;resizeLast=0;collapsible=1;marginBottom=0;whiteSpace=wrap;html=1;" parent="1" vertex="1">
          <mxGeometry x="265" y="2880" width="160" height="86" as="geometry" />
        </mxCell>
        <mxCell id="STVm8akJiiikUNMicJ6v-197" value="price : int" style="text;strokeColor=none;fillColor=none;align=left;verticalAlign=top;spacingLeft=4;spacingRight=4;overflow=hidden;rotatable=0;points=[[0,0.5],[1,0.5]];portConstraint=eastwest;whiteSpace=wrap;html=1;" parent="STVm8akJiiikUNMicJ6v-196" vertex="1">
          <mxGeometry y="26" width="160" height="26" as="geometry" />
        </mxCell>
        <mxCell id="STVm8akJiiikUNMicJ6v-198" value="" style="line;strokeWidth=1;fillColor=none;align=left;verticalAlign=middle;spacingTop=-1;spacingLeft=3;spacingRight=3;rotatable=0;labelPosition=right;points=[];portConstraint=eastwest;strokeColor=inherit;" parent="STVm8akJiiikUNMicJ6v-196" vertex="1">
          <mxGeometry y="52" width="160" height="8" as="geometry" />
        </mxCell>
        <mxCell id="STVm8akJiiikUNMicJ6v-199" value="getNevigate() : void" style="text;strokeColor=none;fillColor=none;align=left;verticalAlign=top;spacingLeft=4;spacingRight=4;overflow=hidden;rotatable=0;points=[[0,0.5],[1,0.5]];portConstraint=eastwest;whiteSpace=wrap;html=1;" parent="STVm8akJiiikUNMicJ6v-196" vertex="1">
          <mxGeometry y="60" width="160" height="26" as="geometry" />
        </mxCell>
        <mxCell id="STVm8akJiiikUNMicJ6v-200" value="Car" style="swimlane;fontStyle=1;align=center;verticalAlign=top;childLayout=stackLayout;horizontal=1;startSize=26;horizontalStack=0;resizeParent=1;resizeParentMax=0;resizeLast=0;collapsible=1;marginBottom=0;whiteSpace=wrap;html=1;" parent="1" vertex="1">
          <mxGeometry x="265" y="2730" width="160" height="78" as="geometry" />
        </mxCell>
        <mxCell id="STVm8akJiiikUNMicJ6v-201" value="year : int&lt;div&gt;name : String&lt;/div&gt;" style="text;strokeColor=none;fillColor=none;align=left;verticalAlign=top;spacingLeft=4;spacingRight=4;overflow=hidden;rotatable=0;points=[[0,0.5],[1,0.5]];portConstraint=eastwest;whiteSpace=wrap;html=1;" parent="STVm8akJiiikUNMicJ6v-200" vertex="1">
          <mxGeometry y="26" width="160" height="44" as="geometry" />
        </mxCell>
        <mxCell id="STVm8akJiiikUNMicJ6v-202" value="" style="line;strokeWidth=1;fillColor=none;align=left;verticalAlign=middle;spacingTop=-1;spacingLeft=3;spacingRight=3;rotatable=0;labelPosition=right;points=[];portConstraint=eastwest;strokeColor=inherit;" parent="STVm8akJiiikUNMicJ6v-200" vertex="1">
          <mxGeometry y="70" width="160" height="8" as="geometry" />
        </mxCell>
        <mxCell id="STVm8akJiiikUNMicJ6v-204" value="Scompany" style="swimlane;fontStyle=1;align=center;verticalAlign=top;childLayout=stackLayout;horizontal=1;startSize=26;horizontalStack=0;resizeParent=1;resizeParentMax=0;resizeLast=0;collapsible=1;marginBottom=0;whiteSpace=wrap;html=1;" parent="1" vertex="1">
          <mxGeometry x="485" y="2880" width="160" height="86" as="geometry" />
        </mxCell>
        <mxCell id="STVm8akJiiikUNMicJ6v-205" value="cc : int" style="text;strokeColor=none;fillColor=none;align=left;verticalAlign=top;spacingLeft=4;spacingRight=4;overflow=hidden;rotatable=0;points=[[0,0.5],[1,0.5]];portConstraint=eastwest;whiteSpace=wrap;html=1;" parent="STVm8akJiiikUNMicJ6v-204" vertex="1">
          <mxGeometry y="26" width="160" height="26" as="geometry" />
        </mxCell>
        <mxCell id="STVm8akJiiikUNMicJ6v-206" value="" style="line;strokeWidth=1;fillColor=none;align=left;verticalAlign=middle;spacingTop=-1;spacingLeft=3;spacingRight=3;rotatable=0;labelPosition=right;points=[];portConstraint=eastwest;strokeColor=inherit;" parent="STVm8akJiiikUNMicJ6v-204" vertex="1">
          <mxGeometry y="52" width="160" height="8" as="geometry" />
        </mxCell>
        <mxCell id="STVm8akJiiikUNMicJ6v-207" value="getSpeed() : void" style="text;strokeColor=none;fillColor=none;align=left;verticalAlign=top;spacingLeft=4;spacingRight=4;overflow=hidden;rotatable=0;points=[[0,0.5],[1,0.5]];portConstraint=eastwest;whiteSpace=wrap;html=1;" parent="STVm8akJiiikUNMicJ6v-204" vertex="1">
          <mxGeometry y="60" width="160" height="26" as="geometry" />
        </mxCell>
        <mxCell id="STVm8akJiiikUNMicJ6v-208" value="" style="endArrow=block;endFill=0;endSize=12;html=1;rounded=0;entryX=0;entryY=1;entryDx=0;entryDy=0;exitX=1;exitY=0;exitDx=0;exitDy=0;" parent="1" source="STVm8akJiiikUNMicJ6v-188" target="STVm8akJiiikUNMicJ6v-200" edge="1">
          <mxGeometry width="160" relative="1" as="geometry">
            <mxPoint x="100" y="2808" as="sourcePoint" />
            <mxPoint x="180" y="2808" as="targetPoint" />
          </mxGeometry>
        </mxCell>
        <mxCell id="STVm8akJiiikUNMicJ6v-209" value="" style="endArrow=block;endFill=0;endSize=12;html=1;rounded=0;entryX=1;entryY=1;entryDx=0;entryDy=0;exitX=0;exitY=0;exitDx=0;exitDy=0;" parent="1" source="STVm8akJiiikUNMicJ6v-204" target="STVm8akJiiikUNMicJ6v-200" edge="1">
          <mxGeometry width="160" relative="1" as="geometry">
            <mxPoint x="610" y="2790" as="sourcePoint" />
            <mxPoint x="690" y="2790" as="targetPoint" />
          </mxGeometry>
        </mxCell>
        <mxCell id="STVm8akJiiikUNMicJ6v-210" value="" style="endArrow=block;endFill=0;endSize=12;html=1;rounded=0;entryX=0.5;entryY=1;entryDx=0;entryDy=0;" parent="1" source="STVm8akJiiikUNMicJ6v-196" target="STVm8akJiiikUNMicJ6v-200" edge="1">
          <mxGeometry width="160" relative="1" as="geometry">
            <mxPoint x="670" y="2730" as="sourcePoint" />
            <mxPoint x="750" y="2730" as="targetPoint" />
          </mxGeometry>
        </mxCell>
        <mxCell id="STVm8akJiiikUNMicJ6v-211" value="" style="endArrow=none;html=1;rounded=0;entryX=1.006;entryY=1.115;entryDx=0;entryDy=0;entryPerimeter=0;exitX=0;exitY=0;exitDx=0;exitDy=0;" parent="1" source="STVm8akJiiikUNMicJ6v-192" target="STVm8akJiiikUNMicJ6v-191" edge="1">
          <mxGeometry width="50" height="50" relative="1" as="geometry">
            <mxPoint x="390" y="3060" as="sourcePoint" />
            <mxPoint x="440" y="3010" as="targetPoint" />
          </mxGeometry>
        </mxCell>
        <mxCell id="STVm8akJiiikUNMicJ6v-212" value="" style="endArrow=none;html=1;rounded=0;entryX=-0.019;entryY=1.038;entryDx=0;entryDy=0;entryPerimeter=0;exitX=1;exitY=0;exitDx=0;exitDy=0;" parent="1" source="STVm8akJiiikUNMicJ6v-192" target="STVm8akJiiikUNMicJ6v-207" edge="1">
          <mxGeometry width="50" height="50" relative="1" as="geometry">
            <mxPoint x="275" y="3030" as="sourcePoint" />
            <mxPoint x="216" y="2979" as="targetPoint" />
          </mxGeometry>
        </mxCell>
        <mxCell id="STVm8akJiiikUNMicJ6v-213" value="" style="endArrow=none;html=1;rounded=0;exitX=0.5;exitY=0;exitDx=0;exitDy=0;entryX=0.506;entryY=1.154;entryDx=0;entryDy=0;entryPerimeter=0;" parent="1" source="STVm8akJiiikUNMicJ6v-192" target="STVm8akJiiikUNMicJ6v-199" edge="1">
          <mxGeometry width="50" height="50" relative="1" as="geometry">
            <mxPoint x="285" y="3040" as="sourcePoint" />
            <mxPoint x="340" y="2990" as="targetPoint" />
          </mxGeometry>
        </mxCell>
        <mxCell id="STVm8akJiiikUNMicJ6v-214" value="&lt;font style=&quot;font-size: 20px;&quot;&gt;의존 관계 : B 클래스가 변경 되었을때 A 클래스를 수정해야 한다면 아래와 같이 표현&lt;/font&gt;" style="text;html=1;align=left;verticalAlign=middle;resizable=0;points=[];autosize=1;strokeColor=none;fillColor=none;" parent="1" vertex="1">
          <mxGeometry x="65" y="3280" width="770" height="40" as="geometry" />
        </mxCell>
        <mxCell id="STVm8akJiiikUNMicJ6v-215" value="Class A" style="text;html=1;align=center;verticalAlign=middle;resizable=0;points=[];autosize=1;strokeColor=none;fillColor=none;" parent="1" vertex="1">
          <mxGeometry x="55" y="3330" width="60" height="30" as="geometry" />
        </mxCell>
        <mxCell id="STVm8akJiiikUNMicJ6v-216" value="Class B" style="text;html=1;align=center;verticalAlign=middle;resizable=0;points=[];autosize=1;strokeColor=none;fillColor=none;" parent="1" vertex="1">
          <mxGeometry x="275" y="3330" width="60" height="30" as="geometry" />
        </mxCell>
        <mxCell id="STVm8akJiiikUNMicJ6v-218" value="" style="endArrow=classic;html=1;rounded=0;entryX=-0.033;entryY=0.5;entryDx=0;entryDy=0;entryPerimeter=0;exitX=1;exitY=0.467;exitDx=0;exitDy=0;exitPerimeter=0;dashed=1;" parent="1" source="STVm8akJiiikUNMicJ6v-215" target="STVm8akJiiikUNMicJ6v-216" edge="1">
          <mxGeometry width="50" height="50" relative="1" as="geometry">
            <mxPoint x="340" y="3567" as="sourcePoint" />
            <mxPoint x="390" y="3517" as="targetPoint" />
          </mxGeometry>
        </mxCell>
        <mxCell id="STVm8akJiiikUNMicJ6v-220" value="&lt;font style=&quot;font-size: 15px;&quot;&gt;한 클래스의 메서드가 다른 클래스의 객체를 인자로 받아 메서드를 사용하는 경우&lt;/font&gt;&lt;div style=&quot;font-size: 15px;&quot;&gt;&lt;font style=&quot;font-size: 15px;&quot;&gt;한 클래스의 메서드 내부에서 다른 클래스의 객체를 생성해서 그 메서드를 사용하는 경우&lt;/font&gt;&lt;/div&gt;&lt;div style=&quot;font-size: 15px;&quot;&gt;&lt;font style=&quot;font-size: 15px;&quot;&gt;다른 클래스의 메서드가 또 다른 클래스의 객체를 반환하는 경우&lt;/font&gt;&lt;/div&gt;" style="text;html=1;align=left;verticalAlign=middle;resizable=0;points=[];autosize=1;strokeColor=none;fillColor=none;" parent="1" vertex="1">
          <mxGeometry x="65" y="3365" width="610" height="70" as="geometry" />
        </mxCell>
        <mxCell id="STVm8akJiiikUNMicJ6v-222" value="텔레비전 -&amp;gt; 리모컨" style="text;html=1;align=center;verticalAlign=middle;resizable=0;points=[];autosize=1;strokeColor=none;fillColor=none;" parent="1" vertex="1">
          <mxGeometry x="155" y="3448" width="130" height="30" as="geometry" />
        </mxCell>
        <mxCell id="STVm8akJiiikUNMicJ6v-223" value="자동차 -&amp;gt; 기어" style="text;html=1;align=center;verticalAlign=middle;resizable=0;points=[];autosize=1;strokeColor=none;fillColor=none;" parent="1" vertex="1">
          <mxGeometry x="170" y="3478" width="100" height="30" as="geometry" />
        </mxCell>
        <mxCell id="STVm8akJiiikUNMicJ6v-224" value="MyApplet" style="html=1;whiteSpace=wrap;" parent="1" vertex="1">
          <mxGeometry x="180" y="3640" width="110" height="50" as="geometry" />
        </mxCell>
        <mxCell id="STVm8akJiiikUNMicJ6v-225" value="Applet" style="html=1;whiteSpace=wrap;" parent="1" vertex="1">
          <mxGeometry x="180" y="3540" width="110" height="50" as="geometry" />
        </mxCell>
        <mxCell id="STVm8akJiiikUNMicJ6v-226" value="" style="endArrow=block;endFill=0;endSize=12;html=1;rounded=0;entryX=0.5;entryY=1;entryDx=0;entryDy=0;exitX=0.5;exitY=0;exitDx=0;exitDy=0;" parent="1" source="STVm8akJiiikUNMicJ6v-224" target="STVm8akJiiikUNMicJ6v-225" edge="1">
          <mxGeometry width="160" relative="1" as="geometry">
            <mxPoint x="330" y="3840" as="sourcePoint" />
            <mxPoint x="490" y="3840" as="targetPoint" />
          </mxGeometry>
        </mxCell>
        <mxCell id="STVm8akJiiikUNMicJ6v-228" value="Graphics" style="html=1;whiteSpace=wrap;" parent="1" vertex="1">
          <mxGeometry x="395" y="3640" width="110" height="50" as="geometry" />
        </mxCell>
        <mxCell id="STVm8akJiiikUNMicJ6v-229" value="" style="endArrow=block;dashed=1;endFill=0;endSize=12;html=1;rounded=0;entryX=0;entryY=0.5;entryDx=0;entryDy=0;exitX=1;exitY=0.5;exitDx=0;exitDy=0;" parent="1" source="STVm8akJiiikUNMicJ6v-224" target="STVm8akJiiikUNMicJ6v-228" edge="1">
          <mxGeometry width="160" relative="1" as="geometry">
            <mxPoint x="330" y="3840" as="sourcePoint" />
            <mxPoint x="490" y="3840" as="targetPoint" />
          </mxGeometry>
        </mxCell>
        <mxCell id="STVm8akJiiikUNMicJ6v-230" value="&lt;font style=&quot;font-size: 15px;&quot;&gt;public class MyApplet extends Applet {&lt;/font&gt;&lt;div style=&quot;font-size: 15px;&quot;&gt;&lt;font style=&quot;font-size: 15px;&quot;&gt;&lt;span style=&quot;white-space: pre;&quot;&gt;&#x9;&lt;/span&gt;public void draw(Graphics g) {&lt;/font&gt;&lt;/div&gt;&lt;div style=&quot;font-size: 15px;&quot;&gt;&lt;font style=&quot;font-size: 15px;&quot;&gt;&lt;span style=&quot;white-space: pre;&quot;&gt;&#x9;&lt;/span&gt;}&lt;/font&gt;&lt;/div&gt;&lt;div style=&quot;font-size: 15px;&quot;&gt;&lt;font style=&quot;font-size: 15px;&quot;&gt;}&lt;/font&gt;&lt;/div&gt;" style="text;html=1;align=left;verticalAlign=middle;whiteSpace=wrap;rounded=0;" parent="1" vertex="1">
          <mxGeometry x="180" y="3730" width="280" height="70" as="geometry" />
        </mxCell>
        <mxCell id="STVm8akJiiikUNMicJ6v-232" value="실체화 관계 : 추상 클래스, 인터페이스를 상속받아&lt;div&gt;&lt;span style=&quot;white-space: pre;&quot;&gt;&#x9;&lt;/span&gt;&lt;span style=&quot;white-space: pre;&quot;&gt;&#x9;&lt;/span&gt;&lt;span style=&quot;white-space: pre;&quot;&gt;&#x9;&lt;/span&gt;자식 클래스가 추상 메서드를 구현할때 사용한다.&lt;br&gt;&lt;/div&gt;" style="text;html=1;align=left;verticalAlign=middle;resizable=0;points=[];autosize=1;strokeColor=none;fillColor=none;" parent="1" vertex="1">
          <mxGeometry x="97.5" y="3920" width="360" height="40" as="geometry" />
        </mxCell>
        <mxCell id="STVm8akJiiikUNMicJ6v-243" value="&amp;lt;&amp;lt;abstract&amp;gt;&amp;gt;&lt;div&gt;추상 클래스 명&lt;/div&gt;" style="swimlane;fontStyle=1;align=center;verticalAlign=top;childLayout=stackLayout;horizontal=1;startSize=50;horizontalStack=0;resizeParent=1;resizeParentMax=0;resizeLast=0;collapsible=1;marginBottom=0;whiteSpace=wrap;html=1;" parent="1" vertex="1">
          <mxGeometry x="130" y="4020" width="160" height="58" as="geometry" />
        </mxCell>
        <mxCell id="STVm8akJiiikUNMicJ6v-245" value="" style="line;strokeWidth=1;fillColor=none;align=left;verticalAlign=middle;spacingTop=-1;spacingLeft=3;spacingRight=3;rotatable=0;labelPosition=right;points=[];portConstraint=eastwest;strokeColor=inherit;" parent="STVm8akJiiikUNMicJ6v-243" vertex="1">
          <mxGeometry y="50" width="160" height="8" as="geometry" />
        </mxCell>
        <mxCell id="STVm8akJiiikUNMicJ6v-247" value="&amp;lt;&amp;lt;interface&amp;gt;&amp;gt;&lt;div&gt;인터페이스명&lt;/div&gt;" style="swimlane;fontStyle=1;align=center;verticalAlign=top;childLayout=stackLayout;horizontal=1;startSize=50;horizontalStack=0;resizeParent=1;resizeParentMax=0;resizeLast=0;collapsible=1;marginBottom=0;whiteSpace=wrap;html=1;" parent="1" vertex="1">
          <mxGeometry x="360" y="4020" width="160" height="58" as="geometry" />
        </mxCell>
        <mxCell id="STVm8akJiiikUNMicJ6v-248" value="" style="line;strokeWidth=1;fillColor=none;align=left;verticalAlign=middle;spacingTop=-1;spacingLeft=3;spacingRight=3;rotatable=0;labelPosition=right;points=[];portConstraint=eastwest;strokeColor=inherit;" parent="STVm8akJiiikUNMicJ6v-247" vertex="1">
          <mxGeometry y="50" width="160" height="8" as="geometry" />
        </mxCell>
        <mxCell id="STVm8akJiiikUNMicJ6v-249" value="구현 클래스" style="swimlane;fontStyle=1;align=center;verticalAlign=top;childLayout=stackLayout;horizontal=1;startSize=50;horizontalStack=0;resizeParent=1;resizeParentMax=0;resizeLast=0;collapsible=1;marginBottom=0;whiteSpace=wrap;html=1;" parent="1" vertex="1">
          <mxGeometry x="360" y="4140" width="160" height="58" as="geometry" />
        </mxCell>
        <mxCell id="STVm8akJiiikUNMicJ6v-250" value="" style="line;strokeWidth=1;fillColor=none;align=left;verticalAlign=middle;spacingTop=-1;spacingLeft=3;spacingRight=3;rotatable=0;labelPosition=right;points=[];portConstraint=eastwest;strokeColor=inherit;" parent="STVm8akJiiikUNMicJ6v-249" vertex="1">
          <mxGeometry y="50" width="160" height="8" as="geometry" />
        </mxCell>
        <mxCell id="STVm8akJiiikUNMicJ6v-252" value="" style="endArrow=block;dashed=1;endFill=0;endSize=12;html=1;rounded=0;entryX=0.5;entryY=1;entryDx=0;entryDy=0;exitX=0.5;exitY=0;exitDx=0;exitDy=0;" parent="1" source="STVm8akJiiikUNMicJ6v-249" target="STVm8akJiiikUNMicJ6v-247" edge="1">
          <mxGeometry width="160" relative="1" as="geometry">
            <mxPoint x="330" y="4410" as="sourcePoint" />
            <mxPoint x="490" y="4410" as="targetPoint" />
          </mxGeometry>
        </mxCell>
        <mxCell id="STVm8akJiiikUNMicJ6v-253" value="날씨 관련 시스템&lt;div&gt;사용자 : 온도, 습도, 강수량을 이력&lt;/div&gt;&lt;div&gt;프로그램 : 입력값에 의해 기계를 작동&lt;/div&gt;&lt;div&gt;&lt;span style=&quot;white-space: pre;&quot;&gt;&#x9;&lt;/span&gt;-에어컨 : 온도가 30도 이상일 경우 작동 20도 이하일 경우 정지&lt;/div&gt;&lt;div&gt;&lt;span style=&quot;white-space: pre;&quot;&gt;&#x9;&lt;/span&gt;-제습기 : 습도가 70% 이상일 경우 작동 30% 이하일 경우 정지&lt;/div&gt;&lt;div&gt;&lt;span style=&quot;white-space: pre;&quot;&gt;&#x9;&lt;/span&gt;-강수량이 200mm 이상일 경우 알림 경보&lt;/div&gt;" style="text;html=1;align=left;verticalAlign=middle;resizable=0;points=[];autosize=1;strokeColor=none;fillColor=none;" parent="1" vertex="1">
          <mxGeometry x="105" y="4320" width="380" height="100" as="geometry" />
        </mxCell>
        <mxCell id="STVm8akJiiikUNMicJ6v-254" value="-클래스 추출 : MySensorBroker (main), Alarm, Dehumidifier, Aircon, Warning, Broker, Rsensor, Hsensor, Tsensor, Frame, Graphics" style="text;html=1;align=left;verticalAlign=middle;resizable=0;points=[];autosize=1;strokeColor=none;fillColor=none;" parent="1" vertex="1">
          <mxGeometry x="97.5" y="4450" width="720" height="30" as="geometry" />
        </mxCell>
        <mxCell id="STVm8akJiiikUNMicJ6v-255" value="-메서드 : 날씨 정보 입력 (get, set), 경보 알림 (warning, paint, setColor, fillOver)" style="text;html=1;align=left;verticalAlign=middle;resizable=0;points=[];autosize=1;strokeColor=none;fillColor=none;" parent="1" vertex="1">
          <mxGeometry x="97.5" y="4480" width="440" height="30" as="geometry" />
        </mxCell>
        <mxCell id="STVm8akJiiikUNMicJ6v-256" value="-추상화 : Actor" style="text;html=1;align=left;verticalAlign=middle;resizable=0;points=[];autosize=1;strokeColor=none;fillColor=none;" parent="1" vertex="1">
          <mxGeometry x="97.5" y="4540" width="100" height="30" as="geometry" />
        </mxCell>
        <mxCell id="STVm8akJiiikUNMicJ6v-258" value="-객체 : Broker" style="text;html=1;align=left;verticalAlign=middle;resizable=0;points=[];autosize=1;strokeColor=none;fillColor=none;" parent="1" vertex="1">
          <mxGeometry x="97.5" y="4568" width="100" height="30" as="geometry" />
        </mxCell>
        <mxCell id="STVm8akJiiikUNMicJ6v-259" value="-인터페이스 : Sensor" style="text;html=1;align=left;verticalAlign=middle;resizable=0;points=[];autosize=1;strokeColor=none;fillColor=none;" parent="1" vertex="1">
          <mxGeometry x="97.5" y="4598" width="140" height="30" as="geometry" />
        </mxCell>
        <mxCell id="STVm8akJiiikUNMicJ6v-260" value="&amp;lt;&amp;lt;interface&amp;gt;&amp;gt;&lt;div&gt;Sensor&lt;/div&gt;" style="swimlane;fontStyle=1;align=center;verticalAlign=top;childLayout=stackLayout;horizontal=1;startSize=50;horizontalStack=0;resizeParent=1;resizeParentMax=0;resizeLast=0;collapsible=1;marginBottom=0;whiteSpace=wrap;html=1;" parent="1" vertex="1">
          <mxGeometry x="345" y="4660" width="160" height="84" as="geometry" />
        </mxCell>
        <mxCell id="STVm8akJiiikUNMicJ6v-262" value="" style="line;strokeWidth=1;fillColor=none;align=left;verticalAlign=middle;spacingTop=-1;spacingLeft=3;spacingRight=3;rotatable=0;labelPosition=right;points=[];portConstraint=eastwest;strokeColor=inherit;" parent="STVm8akJiiikUNMicJ6v-260" vertex="1">
          <mxGeometry y="50" width="160" height="8" as="geometry" />
        </mxCell>
        <mxCell id="STVm8akJiiikUNMicJ6v-263" value="+ method(type): type" style="text;strokeColor=none;fillColor=none;align=left;verticalAlign=top;spacingLeft=4;spacingRight=4;overflow=hidden;rotatable=0;points=[[0,0.5],[1,0.5]];portConstraint=eastwest;whiteSpace=wrap;html=1;" parent="STVm8akJiiikUNMicJ6v-260" vertex="1">
          <mxGeometry y="58" width="160" height="26" as="geometry" />
        </mxCell>
        <mxCell id="STVm8akJiiikUNMicJ6v-264" value="MySensorBroker" style="swimlane;fontStyle=1;align=center;verticalAlign=top;childLayout=stackLayout;horizontal=1;startSize=26;horizontalStack=0;resizeParent=1;resizeParentMax=0;resizeLast=0;collapsible=1;marginBottom=0;whiteSpace=wrap;html=1;" parent="1" vertex="1">
          <mxGeometry x="60" y="4660" width="160" height="86" as="geometry" />
        </mxCell>
        <mxCell id="STVm8akJiiikUNMicJ6v-265" value="+ field: type" style="text;strokeColor=none;fillColor=none;align=left;verticalAlign=top;spacingLeft=4;spacingRight=4;overflow=hidden;rotatable=0;points=[[0,0.5],[1,0.5]];portConstraint=eastwest;whiteSpace=wrap;html=1;" parent="STVm8akJiiikUNMicJ6v-264" vertex="1">
          <mxGeometry y="26" width="160" height="26" as="geometry" />
        </mxCell>
        <mxCell id="STVm8akJiiikUNMicJ6v-266" value="" style="line;strokeWidth=1;fillColor=none;align=left;verticalAlign=middle;spacingTop=-1;spacingLeft=3;spacingRight=3;rotatable=0;labelPosition=right;points=[];portConstraint=eastwest;strokeColor=inherit;" parent="STVm8akJiiikUNMicJ6v-264" vertex="1">
          <mxGeometry y="52" width="160" height="8" as="geometry" />
        </mxCell>
        <mxCell id="STVm8akJiiikUNMicJ6v-267" value="+ main : void" style="text;strokeColor=none;fillColor=none;align=left;verticalAlign=top;spacingLeft=4;spacingRight=4;overflow=hidden;rotatable=0;points=[[0,0.5],[1,0.5]];portConstraint=eastwest;whiteSpace=wrap;html=1;" parent="STVm8akJiiikUNMicJ6v-264" vertex="1">
          <mxGeometry y="60" width="160" height="26" as="geometry" />
        </mxCell>
        <mxCell id="STVm8akJiiikUNMicJ6v-268" value="Rsensor" style="swimlane;fontStyle=1;align=center;verticalAlign=top;childLayout=stackLayout;horizontal=1;startSize=26;horizontalStack=0;resizeParent=1;resizeParentMax=0;resizeLast=0;collapsible=1;marginBottom=0;whiteSpace=wrap;html=1;" parent="1" vertex="1">
          <mxGeometry x="155" y="4820" width="160" height="86" as="geometry" />
        </mxCell>
        <mxCell id="STVm8akJiiikUNMicJ6v-269" value="s : Scanner" style="text;strokeColor=none;fillColor=none;align=left;verticalAlign=top;spacingLeft=4;spacingRight=4;overflow=hidden;rotatable=0;points=[[0,0.5],[1,0.5]];portConstraint=eastwest;whiteSpace=wrap;html=1;" parent="STVm8akJiiikUNMicJ6v-268" vertex="1">
          <mxGeometry y="26" width="160" height="26" as="geometry" />
        </mxCell>
        <mxCell id="STVm8akJiiikUNMicJ6v-270" value="" style="line;strokeWidth=1;fillColor=none;align=left;verticalAlign=middle;spacingTop=-1;spacingLeft=3;spacingRight=3;rotatable=0;labelPosition=right;points=[];portConstraint=eastwest;strokeColor=inherit;" parent="STVm8akJiiikUNMicJ6v-268" vertex="1">
          <mxGeometry y="52" width="160" height="8" as="geometry" />
        </mxCell>
        <mxCell id="STVm8akJiiikUNMicJ6v-271" value="+ get : int" style="text;strokeColor=none;fillColor=none;align=left;verticalAlign=top;spacingLeft=4;spacingRight=4;overflow=hidden;rotatable=0;points=[[0,0.5],[1,0.5]];portConstraint=eastwest;whiteSpace=wrap;html=1;" parent="STVm8akJiiikUNMicJ6v-268" vertex="1">
          <mxGeometry y="60" width="160" height="26" as="geometry" />
        </mxCell>
        <mxCell id="STVm8akJiiikUNMicJ6v-272" value="Hsensor" style="swimlane;fontStyle=1;align=center;verticalAlign=top;childLayout=stackLayout;horizontal=1;startSize=26;horizontalStack=0;resizeParent=1;resizeParentMax=0;resizeLast=0;collapsible=1;marginBottom=0;whiteSpace=wrap;html=1;" parent="1" vertex="1">
          <mxGeometry x="345" y="4820" width="160" height="86" as="geometry" />
        </mxCell>
        <mxCell id="STVm8akJiiikUNMicJ6v-273" value="s : Scanner" style="text;strokeColor=none;fillColor=none;align=left;verticalAlign=top;spacingLeft=4;spacingRight=4;overflow=hidden;rotatable=0;points=[[0,0.5],[1,0.5]];portConstraint=eastwest;whiteSpace=wrap;html=1;" parent="STVm8akJiiikUNMicJ6v-272" vertex="1">
          <mxGeometry y="26" width="160" height="26" as="geometry" />
        </mxCell>
        <mxCell id="STVm8akJiiikUNMicJ6v-274" value="" style="line;strokeWidth=1;fillColor=none;align=left;verticalAlign=middle;spacingTop=-1;spacingLeft=3;spacingRight=3;rotatable=0;labelPosition=right;points=[];portConstraint=eastwest;strokeColor=inherit;" parent="STVm8akJiiikUNMicJ6v-272" vertex="1">
          <mxGeometry y="52" width="160" height="8" as="geometry" />
        </mxCell>
        <mxCell id="STVm8akJiiikUNMicJ6v-275" value="+ get : int" style="text;strokeColor=none;fillColor=none;align=left;verticalAlign=top;spacingLeft=4;spacingRight=4;overflow=hidden;rotatable=0;points=[[0,0.5],[1,0.5]];portConstraint=eastwest;whiteSpace=wrap;html=1;" parent="STVm8akJiiikUNMicJ6v-272" vertex="1">
          <mxGeometry y="60" width="160" height="26" as="geometry" />
        </mxCell>
        <mxCell id="STVm8akJiiikUNMicJ6v-276" value="Tsensor" style="swimlane;fontStyle=1;align=center;verticalAlign=top;childLayout=stackLayout;horizontal=1;startSize=26;horizontalStack=0;resizeParent=1;resizeParentMax=0;resizeLast=0;collapsible=1;marginBottom=0;whiteSpace=wrap;html=1;" parent="1" vertex="1">
          <mxGeometry x="540" y="4820" width="160" height="86" as="geometry" />
        </mxCell>
        <mxCell id="STVm8akJiiikUNMicJ6v-277" value="s : Scanner" style="text;strokeColor=none;fillColor=none;align=left;verticalAlign=top;spacingLeft=4;spacingRight=4;overflow=hidden;rotatable=0;points=[[0,0.5],[1,0.5]];portConstraint=eastwest;whiteSpace=wrap;html=1;" parent="STVm8akJiiikUNMicJ6v-276" vertex="1">
          <mxGeometry y="26" width="160" height="26" as="geometry" />
        </mxCell>
        <mxCell id="STVm8akJiiikUNMicJ6v-278" value="" style="line;strokeWidth=1;fillColor=none;align=left;verticalAlign=middle;spacingTop=-1;spacingLeft=3;spacingRight=3;rotatable=0;labelPosition=right;points=[];portConstraint=eastwest;strokeColor=inherit;" parent="STVm8akJiiikUNMicJ6v-276" vertex="1">
          <mxGeometry y="52" width="160" height="8" as="geometry" />
        </mxCell>
        <mxCell id="STVm8akJiiikUNMicJ6v-279" value="+ get : int" style="text;strokeColor=none;fillColor=none;align=left;verticalAlign=top;spacingLeft=4;spacingRight=4;overflow=hidden;rotatable=0;points=[[0,0.5],[1,0.5]];portConstraint=eastwest;whiteSpace=wrap;html=1;" parent="STVm8akJiiikUNMicJ6v-276" vertex="1">
          <mxGeometry y="60" width="160" height="26" as="geometry" />
        </mxCell>
        <mxCell id="STVm8akJiiikUNMicJ6v-280" value="" style="endArrow=block;dashed=1;endFill=0;endSize=12;html=1;rounded=0;entryX=0.531;entryY=1.154;entryDx=0;entryDy=0;entryPerimeter=0;exitX=0.5;exitY=0;exitDx=0;exitDy=0;" parent="1" source="STVm8akJiiikUNMicJ6v-272" target="STVm8akJiiikUNMicJ6v-263" edge="1">
          <mxGeometry width="160" relative="1" as="geometry">
            <mxPoint x="400" y="4710" as="sourcePoint" />
            <mxPoint x="560" y="4710" as="targetPoint" />
          </mxGeometry>
        </mxCell>
        <mxCell id="STVm8akJiiikUNMicJ6v-281" value="" style="endArrow=block;dashed=1;endFill=0;endSize=12;html=1;rounded=0;entryX=0.981;entryY=1.038;entryDx=0;entryDy=0;entryPerimeter=0;exitX=0.5;exitY=0;exitDx=0;exitDy=0;" parent="1" source="STVm8akJiiikUNMicJ6v-276" target="STVm8akJiiikUNMicJ6v-263" edge="1">
          <mxGeometry width="160" relative="1" as="geometry">
            <mxPoint x="435" y="4830" as="sourcePoint" />
            <mxPoint x="440" y="4758" as="targetPoint" />
          </mxGeometry>
        </mxCell>
        <mxCell id="STVm8akJiiikUNMicJ6v-282" value="" style="endArrow=block;dashed=1;endFill=0;endSize=12;html=1;rounded=0;entryX=0.013;entryY=0.885;entryDx=0;entryDy=0;entryPerimeter=0;exitX=0.5;exitY=0;exitDx=0;exitDy=0;" parent="1" source="STVm8akJiiikUNMicJ6v-268" target="STVm8akJiiikUNMicJ6v-263" edge="1">
          <mxGeometry width="160" relative="1" as="geometry">
            <mxPoint x="630" y="4830" as="sourcePoint" />
            <mxPoint x="438" y="4756" as="targetPoint" />
          </mxGeometry>
        </mxCell>
        <mxCell id="STVm8akJiiikUNMicJ6v-290" value="1" style="endArrow=open;html=1;endSize=12;startArrow=diamondThin;startSize=14;startFill=0;edgeStyle=orthogonalEdgeStyle;align=left;verticalAlign=bottom;rounded=0;" parent="1" edge="1">
          <mxGeometry x="-1" y="3" relative="1" as="geometry">
            <mxPoint x="220" y="4701.5" as="sourcePoint" />
            <mxPoint x="350" y="4701.5" as="targetPoint" />
          </mxGeometry>
        </mxCell>
        <mxCell id="STVm8akJiiikUNMicJ6v-292" value="0..*" style="text;html=1;align=center;verticalAlign=middle;resizable=0;points=[];autosize=1;strokeColor=none;fillColor=none;" parent="1" vertex="1">
          <mxGeometry x="305" y="4676" width="40" height="30" as="geometry" />
        </mxCell>
        <mxCell id="STVm8akJiiikUNMicJ6v-293" value="Actor" style="swimlane;fontStyle=1;align=center;verticalAlign=top;childLayout=stackLayout;horizontal=1;startSize=26;horizontalStack=0;resizeParent=1;resizeParentMax=0;resizeLast=0;collapsible=1;marginBottom=0;whiteSpace=wrap;html=1;" parent="1" vertex="1">
          <mxGeometry x="345" y="4960" width="160" height="86" as="geometry" />
        </mxCell>
        <mxCell id="STVm8akJiiikUNMicJ6v-294" value="type : int" style="text;strokeColor=none;fillColor=none;align=left;verticalAlign=top;spacingLeft=4;spacingRight=4;overflow=hidden;rotatable=0;points=[[0,0.5],[1,0.5]];portConstraint=eastwest;whiteSpace=wrap;html=1;" parent="STVm8akJiiikUNMicJ6v-293" vertex="1">
          <mxGeometry y="26" width="160" height="26" as="geometry" />
        </mxCell>
        <mxCell id="STVm8akJiiikUNMicJ6v-295" value="" style="line;strokeWidth=1;fillColor=none;align=left;verticalAlign=middle;spacingTop=-1;spacingLeft=3;spacingRight=3;rotatable=0;labelPosition=right;points=[];portConstraint=eastwest;strokeColor=inherit;" parent="STVm8akJiiikUNMicJ6v-293" vertex="1">
          <mxGeometry y="52" width="160" height="8" as="geometry" />
        </mxCell>
        <mxCell id="STVm8akJiiikUNMicJ6v-296" value="put : void" style="text;strokeColor=none;fillColor=none;align=left;verticalAlign=top;spacingLeft=4;spacingRight=4;overflow=hidden;rotatable=0;points=[[0,0.5],[1,0.5]];portConstraint=eastwest;whiteSpace=wrap;html=1;" parent="STVm8akJiiikUNMicJ6v-293" vertex="1">
          <mxGeometry y="60" width="160" height="26" as="geometry" />
        </mxCell>
        <mxCell id="STVm8akJiiikUNMicJ6v-297" value="&lt;div style=&quot;text-align: left;&quot;&gt;Dehumidifier&lt;/div&gt;" style="swimlane;fontStyle=1;align=center;verticalAlign=top;childLayout=stackLayout;horizontal=1;startSize=26;horizontalStack=0;resizeParent=1;resizeParentMax=0;resizeLast=0;collapsible=1;marginBottom=0;whiteSpace=wrap;html=1;" parent="1" vertex="1">
          <mxGeometry x="345" y="5140" width="160" height="60" as="geometry" />
        </mxCell>
        <mxCell id="STVm8akJiiikUNMicJ6v-299" value="" style="line;strokeWidth=1;fillColor=none;align=left;verticalAlign=middle;spacingTop=-1;spacingLeft=3;spacingRight=3;rotatable=0;labelPosition=right;points=[];portConstraint=eastwest;strokeColor=inherit;" parent="STVm8akJiiikUNMicJ6v-297" vertex="1">
          <mxGeometry y="26" width="160" height="8" as="geometry" />
        </mxCell>
        <mxCell id="STVm8akJiiikUNMicJ6v-300" value="put : void" style="text;strokeColor=none;fillColor=none;align=left;verticalAlign=top;spacingLeft=4;spacingRight=4;overflow=hidden;rotatable=0;points=[[0,0.5],[1,0.5]];portConstraint=eastwest;whiteSpace=wrap;html=1;" parent="STVm8akJiiikUNMicJ6v-297" vertex="1">
          <mxGeometry y="34" width="160" height="26" as="geometry" />
        </mxCell>
        <mxCell id="STVm8akJiiikUNMicJ6v-301" value="&lt;div style=&quot;text-align: left;&quot;&gt;Alarm&lt;/div&gt;" style="swimlane;fontStyle=1;align=center;verticalAlign=top;childLayout=stackLayout;horizontal=1;startSize=26;horizontalStack=0;resizeParent=1;resizeParentMax=0;resizeLast=0;collapsible=1;marginBottom=0;whiteSpace=wrap;html=1;" parent="1" vertex="1">
          <mxGeometry x="155" y="5140" width="160" height="60" as="geometry" />
        </mxCell>
        <mxCell id="STVm8akJiiikUNMicJ6v-303" value="" style="line;strokeWidth=1;fillColor=none;align=left;verticalAlign=middle;spacingTop=-1;spacingLeft=3;spacingRight=3;rotatable=0;labelPosition=right;points=[];portConstraint=eastwest;strokeColor=inherit;" parent="STVm8akJiiikUNMicJ6v-301" vertex="1">
          <mxGeometry y="26" width="160" height="8" as="geometry" />
        </mxCell>
        <mxCell id="STVm8akJiiikUNMicJ6v-304" value="put : void" style="text;strokeColor=none;fillColor=none;align=left;verticalAlign=top;spacingLeft=4;spacingRight=4;overflow=hidden;rotatable=0;points=[[0,0.5],[1,0.5]];portConstraint=eastwest;whiteSpace=wrap;html=1;" parent="STVm8akJiiikUNMicJ6v-301" vertex="1">
          <mxGeometry y="34" width="160" height="26" as="geometry" />
        </mxCell>
        <mxCell id="STVm8akJiiikUNMicJ6v-305" value="Aircon" style="swimlane;fontStyle=1;align=center;verticalAlign=top;childLayout=stackLayout;horizontal=1;startSize=26;horizontalStack=0;resizeParent=1;resizeParentMax=0;resizeLast=0;collapsible=1;marginBottom=0;whiteSpace=wrap;html=1;" parent="1" vertex="1">
          <mxGeometry x="540" y="5140" width="160" height="60" as="geometry" />
        </mxCell>
        <mxCell id="STVm8akJiiikUNMicJ6v-307" value="" style="line;strokeWidth=1;fillColor=none;align=left;verticalAlign=middle;spacingTop=-1;spacingLeft=3;spacingRight=3;rotatable=0;labelPosition=right;points=[];portConstraint=eastwest;strokeColor=inherit;" parent="STVm8akJiiikUNMicJ6v-305" vertex="1">
          <mxGeometry y="26" width="160" height="8" as="geometry" />
        </mxCell>
        <mxCell id="STVm8akJiiikUNMicJ6v-308" value="put : void" style="text;strokeColor=none;fillColor=none;align=left;verticalAlign=top;spacingLeft=4;spacingRight=4;overflow=hidden;rotatable=0;points=[[0,0.5],[1,0.5]];portConstraint=eastwest;whiteSpace=wrap;html=1;" parent="STVm8akJiiikUNMicJ6v-305" vertex="1">
          <mxGeometry y="34" width="160" height="26" as="geometry" />
        </mxCell>
        <mxCell id="STVm8akJiiikUNMicJ6v-309" value="Broker" style="swimlane;fontStyle=1;align=center;verticalAlign=top;childLayout=stackLayout;horizontal=1;startSize=26;horizontalStack=0;resizeParent=1;resizeParentMax=0;resizeLast=0;collapsible=1;marginBottom=0;whiteSpace=wrap;html=1;" parent="1" vertex="1">
          <mxGeometry x="60" y="4960" width="160" height="120" as="geometry" />
        </mxCell>
        <mxCell id="STVm8akJiiikUNMicJ6v-310" value="daf : int&lt;div&gt;actors : Actor[]&lt;/div&gt;" style="text;strokeColor=none;fillColor=none;align=left;verticalAlign=top;spacingLeft=4;spacingRight=4;overflow=hidden;rotatable=0;points=[[0,0.5],[1,0.5]];portConstraint=eastwest;whiteSpace=wrap;html=1;" parent="STVm8akJiiikUNMicJ6v-309" vertex="1">
          <mxGeometry y="26" width="160" height="44" as="geometry" />
        </mxCell>
        <mxCell id="STVm8akJiiikUNMicJ6v-311" value="" style="line;strokeWidth=1;fillColor=none;align=left;verticalAlign=middle;spacingTop=-1;spacingLeft=3;spacingRight=3;rotatable=0;labelPosition=right;points=[];portConstraint=eastwest;strokeColor=inherit;" parent="STVm8akJiiikUNMicJ6v-309" vertex="1">
          <mxGeometry y="70" width="160" height="8" as="geometry" />
        </mxCell>
        <mxCell id="STVm8akJiiikUNMicJ6v-312" value="add : void&lt;div&gt;cast : void&lt;/div&gt;" style="text;strokeColor=none;fillColor=none;align=left;verticalAlign=top;spacingLeft=4;spacingRight=4;overflow=hidden;rotatable=0;points=[[0,0.5],[1,0.5]];portConstraint=eastwest;whiteSpace=wrap;html=1;" parent="STVm8akJiiikUNMicJ6v-309" vertex="1">
          <mxGeometry y="78" width="160" height="42" as="geometry" />
        </mxCell>
        <mxCell id="STVm8akJiiikUNMicJ6v-316" value="Warning" style="swimlane;fontStyle=1;align=center;verticalAlign=top;childLayout=stackLayout;horizontal=1;startSize=26;horizontalStack=0;resizeParent=1;resizeParentMax=0;resizeLast=0;collapsible=1;marginBottom=0;whiteSpace=wrap;html=1;" parent="1" vertex="1">
          <mxGeometry x="827" y="4820" width="160" height="60" as="geometry" />
        </mxCell>
        <mxCell id="STVm8akJiiikUNMicJ6v-318" value="" style="line;strokeWidth=1;fillColor=none;align=left;verticalAlign=middle;spacingTop=-1;spacingLeft=3;spacingRight=3;rotatable=0;labelPosition=right;points=[];portConstraint=eastwest;strokeColor=inherit;" parent="STVm8akJiiikUNMicJ6v-316" vertex="1">
          <mxGeometry y="26" width="160" height="8" as="geometry" />
        </mxCell>
        <mxCell id="STVm8akJiiikUNMicJ6v-319" value="put : void" style="text;strokeColor=none;fillColor=none;align=left;verticalAlign=top;spacingLeft=4;spacingRight=4;overflow=hidden;rotatable=0;points=[[0,0.5],[1,0.5]];portConstraint=eastwest;whiteSpace=wrap;html=1;" parent="STVm8akJiiikUNMicJ6v-316" vertex="1">
          <mxGeometry y="34" width="160" height="26" as="geometry" />
        </mxCell>
        <mxCell id="STVm8akJiiikUNMicJ6v-320" value="&lt;div style=&quot;text-align: left;&quot;&gt;Graphics&lt;/div&gt;" style="swimlane;fontStyle=1;align=center;verticalAlign=top;childLayout=stackLayout;horizontal=1;startSize=26;horizontalStack=0;resizeParent=1;resizeParentMax=0;resizeLast=0;collapsible=1;marginBottom=0;whiteSpace=wrap;html=1;" parent="1" vertex="1">
          <mxGeometry x="1027" y="4820" width="160" height="60" as="geometry" />
        </mxCell>
        <mxCell id="STVm8akJiiikUNMicJ6v-321" value="" style="line;strokeWidth=1;fillColor=none;align=left;verticalAlign=middle;spacingTop=-1;spacingLeft=3;spacingRight=3;rotatable=0;labelPosition=right;points=[];portConstraint=eastwest;strokeColor=inherit;" parent="STVm8akJiiikUNMicJ6v-320" vertex="1">
          <mxGeometry y="26" width="160" height="8" as="geometry" />
        </mxCell>
        <mxCell id="STVm8akJiiikUNMicJ6v-322" value="put : void" style="text;strokeColor=none;fillColor=none;align=left;verticalAlign=top;spacingLeft=4;spacingRight=4;overflow=hidden;rotatable=0;points=[[0,0.5],[1,0.5]];portConstraint=eastwest;whiteSpace=wrap;html=1;" parent="STVm8akJiiikUNMicJ6v-320" vertex="1">
          <mxGeometry y="34" width="160" height="26" as="geometry" />
        </mxCell>
        <mxCell id="STVm8akJiiikUNMicJ6v-323" value="" style="endArrow=block;dashed=1;endFill=0;endSize=12;html=1;rounded=0;entryX=1;entryY=0.5;entryDx=0;entryDy=0;exitX=0;exitY=0.5;exitDx=0;exitDy=0;" parent="1" source="STVm8akJiiikUNMicJ6v-320" target="STVm8akJiiikUNMicJ6v-316" edge="1">
          <mxGeometry width="160" relative="1" as="geometry">
            <mxPoint x="907" y="4690" as="sourcePoint" />
            <mxPoint x="789" y="4615" as="targetPoint" />
          </mxGeometry>
        </mxCell>
        <mxCell id="STVm8akJiiikUNMicJ6v-324" value="Frame" style="swimlane;fontStyle=1;align=center;verticalAlign=top;childLayout=stackLayout;horizontal=1;startSize=26;horizontalStack=0;resizeParent=1;resizeParentMax=0;resizeLast=0;collapsible=1;marginBottom=0;whiteSpace=wrap;html=1;" parent="1" vertex="1">
          <mxGeometry x="827" y="4672" width="160" height="34" as="geometry" />
        </mxCell>
        <mxCell id="STVm8akJiiikUNMicJ6v-325" value="" style="line;strokeWidth=1;fillColor=none;align=left;verticalAlign=middle;spacingTop=-1;spacingLeft=3;spacingRight=3;rotatable=0;labelPosition=right;points=[];portConstraint=eastwest;strokeColor=inherit;" parent="STVm8akJiiikUNMicJ6v-324" vertex="1">
          <mxGeometry y="26" width="160" height="8" as="geometry" />
        </mxCell>
        <mxCell id="STVm8akJiiikUNMicJ6v-330" value="1" style="endArrow=open;html=1;endSize=12;startArrow=diamondThin;startSize=14;startFill=0;edgeStyle=orthogonalEdgeStyle;align=left;verticalAlign=bottom;rounded=0;" parent="1" edge="1">
          <mxGeometry x="-1" y="3" relative="1" as="geometry">
            <mxPoint x="215" y="5019.5" as="sourcePoint" />
            <mxPoint x="340" y="5020" as="targetPoint" />
          </mxGeometry>
        </mxCell>
        <mxCell id="STVm8akJiiikUNMicJ6v-331" value="Dialer" style="html=1;whiteSpace=wrap;" parent="1" vertex="1">
          <mxGeometry x="155" y="5415" width="165" height="80" as="geometry" />
        </mxCell>
        <mxCell id="STVm8akJiiikUNMicJ6v-332" value="public class Dialer {}" style="text;html=1;align=center;verticalAlign=middle;resizable=0;points=[];autosize=1;strokeColor=none;fillColor=none;" parent="1" vertex="1">
          <mxGeometry x="390" y="5440" width="130" height="30" as="geometry" />
        </mxCell>
        <mxCell id="STVm8akJiiikUNMicJ6v-333" value="Dialer" style="swimlane;fontStyle=1;align=center;verticalAlign=top;childLayout=stackLayout;horizontal=1;startSize=26;horizontalStack=0;resizeParent=1;resizeParentMax=0;resizeLast=0;collapsible=1;marginBottom=0;whiteSpace=wrap;html=1;" parent="1" vertex="1">
          <mxGeometry x="155" y="5560" width="165" height="130" as="geometry" />
        </mxCell>
        <mxCell id="STVm8akJiiikUNMicJ6v-334" value="-digits : Vector&lt;div&gt;-nDigits : int&lt;/div&gt;" style="text;strokeColor=none;fillColor=none;align=left;verticalAlign=top;spacingLeft=4;spacingRight=4;overflow=hidden;rotatable=0;points=[[0,0.5],[1,0.5]];portConstraint=eastwest;whiteSpace=wrap;html=1;" parent="STVm8akJiiikUNMicJ6v-333" vertex="1">
          <mxGeometry y="26" width="165" height="44" as="geometry" />
        </mxCell>
        <mxCell id="STVm8akJiiikUNMicJ6v-335" value="" style="line;strokeWidth=1;fillColor=none;align=left;verticalAlign=middle;spacingTop=-1;spacingLeft=3;spacingRight=3;rotatable=0;labelPosition=right;points=[];portConstraint=eastwest;strokeColor=inherit;" parent="STVm8akJiiikUNMicJ6v-333" vertex="1">
          <mxGeometry y="70" width="165" height="8" as="geometry" />
        </mxCell>
        <mxCell id="STVm8akJiiikUNMicJ6v-336" value="+ digit (n: int)&lt;div&gt;# recordDigit (n:int) : boolean&lt;/div&gt;" style="text;strokeColor=none;fillColor=none;align=left;verticalAlign=top;spacingLeft=4;spacingRight=4;overflow=hidden;rotatable=0;points=[[0,0.5],[1,0.5]];portConstraint=eastwest;whiteSpace=wrap;html=1;" parent="STVm8akJiiikUNMicJ6v-333" vertex="1">
          <mxGeometry y="78" width="165" height="52" as="geometry" />
        </mxCell>
        <mxCell id="STVm8akJiiikUNMicJ6v-337" value="public Dialer {&lt;div&gt;&lt;span style=&quot;white-space: pre;&quot;&gt;&#x9;&lt;/span&gt;private Vector digits;&lt;/div&gt;&lt;div&gt;&lt;span style=&quot;white-space: pre;&quot;&gt;&#x9;&lt;/span&gt;int nDigits;&lt;/div&gt;&lt;div&gt;&lt;span style=&quot;white-space: pre;&quot;&gt;&#x9;&lt;/span&gt;public void digits(int n) {};&lt;/div&gt;&lt;div&gt;&lt;span style=&quot;white-space: pre;&quot;&gt;&#x9;&lt;/span&gt;protected boolean recordDigit(int n) {}&lt;/div&gt;&lt;div&gt;}&lt;/div&gt;" style="text;html=1;align=left;verticalAlign=middle;resizable=0;points=[];autosize=1;strokeColor=none;fillColor=none;" parent="1" vertex="1">
          <mxGeometry x="370" y="5560" width="250" height="100" as="geometry" />
        </mxCell>
        <mxCell id="STVm8akJiiikUNMicJ6v-338" value="Button" style="html=1;whiteSpace=wrap;" parent="1" vertex="1">
          <mxGeometry x="335" y="5740" width="110" height="50" as="geometry" />
        </mxCell>
        <mxCell id="STVm8akJiiikUNMicJ6v-339" value="Phone" style="html=1;whiteSpace=wrap;" parent="1" vertex="1">
          <mxGeometry x="155" y="5740" width="110" height="50" as="geometry" />
        </mxCell>
        <mxCell id="STVm8akJiiikUNMicJ6v-345" value="&lt;div style=&quot;&quot;&gt;15&lt;/div&gt;" style="html=1;verticalAlign=bottom;endArrow=block;curved=0;rounded=0;entryX=0;entryY=0.5;entryDx=0;entryDy=0;align=left;" parent="1" target="STVm8akJiiikUNMicJ6v-338" edge="1">
          <mxGeometry width="80" relative="1" as="geometry">
            <mxPoint x="265" y="5764.5" as="sourcePoint" />
            <mxPoint x="345" y="5764.5" as="targetPoint" />
          </mxGeometry>
        </mxCell>
        <mxCell id="STVm8akJiiikUNMicJ6v-346" value="itsButtons" style="text;html=1;align=center;verticalAlign=middle;resizable=0;points=[];autosize=1;strokeColor=none;fillColor=none;" parent="1" vertex="1">
          <mxGeometry x="265" y="5760" width="80" height="30" as="geometry" />
        </mxCell>
        <mxCell id="STVm8akJiiikUNMicJ6v-348" value="public class Phone {&lt;div&gt;&lt;span style=&quot;white-space: pre;&quot;&gt;&#x9;&lt;/span&gt;private Button itsButtons[15];&lt;br&gt;&lt;/div&gt;&lt;div&gt;}&lt;/div&gt;" style="text;html=1;align=left;verticalAlign=middle;resizable=0;points=[];autosize=1;strokeColor=none;fillColor=none;" parent="1" vertex="1">
          <mxGeometry x="475" y="5740" width="200" height="60" as="geometry" />
        </mxCell>
        <mxCell id="STVm8akJiiikUNMicJ6v-349" value="PhoneNumber" style="html=1;whiteSpace=wrap;" parent="1" vertex="1">
          <mxGeometry x="335" y="5840" width="110" height="50" as="geometry" />
        </mxCell>
        <mxCell id="STVm8akJiiikUNMicJ6v-350" value="PhoneBook" style="html=1;whiteSpace=wrap;" parent="1" vertex="1">
          <mxGeometry x="155" y="5840" width="110" height="50" as="geometry" />
        </mxCell>
        <mxCell id="STVm8akJiiikUNMicJ6v-351" value="&lt;div style=&quot;&quot;&gt;*&lt;/div&gt;" style="html=1;verticalAlign=bottom;endArrow=block;curved=0;rounded=0;entryX=0;entryY=0.5;entryDx=0;entryDy=0;align=left;" parent="1" target="STVm8akJiiikUNMicJ6v-349" edge="1">
          <mxGeometry width="80" relative="1" as="geometry">
            <mxPoint x="265" y="5864.5" as="sourcePoint" />
            <mxPoint x="345" y="5864.5" as="targetPoint" />
          </mxGeometry>
        </mxCell>
        <mxCell id="STVm8akJiiikUNMicJ6v-352" value="itsPhone" style="text;html=1;align=center;verticalAlign=middle;resizable=0;points=[];autosize=1;strokeColor=none;fillColor=none;" parent="1" vertex="1">
          <mxGeometry x="270" y="5860" width="70" height="30" as="geometry" />
        </mxCell>
        <mxCell id="STVm8akJiiikUNMicJ6v-353" value="public class PhoneBook {&lt;div&gt;&lt;span style=&quot;white-space: pre;&quot;&gt;&#x9;&lt;/span&gt;private PhoneNumber itsPhone;&lt;br&gt;&lt;/div&gt;&lt;div&gt;}&lt;/div&gt;" style="text;html=1;align=left;verticalAlign=middle;resizable=0;points=[];autosize=1;strokeColor=none;fillColor=none;" parent="1" vertex="1">
          <mxGeometry x="480" y="5840" width="220" height="60" as="geometry" />
        </mxCell>
        <mxCell id="STVm8akJiiikUNMicJ6v-354" value="Employee" style="html=1;whiteSpace=wrap;" parent="1" vertex="1">
          <mxGeometry x="780" y="5430" width="110" height="50" as="geometry" />
        </mxCell>
        <mxCell id="STVm8akJiiikUNMicJ6v-355" value="Sub Employee" style="html=1;whiteSpace=wrap;" parent="1" vertex="1">
          <mxGeometry x="780" y="5540" width="110" height="50" as="geometry" />
        </mxCell>
        <mxCell id="STVm8akJiiikUNMicJ6v-356" value="" style="endArrow=block;endFill=0;endSize=12;html=1;rounded=0;entryX=0.5;entryY=1;entryDx=0;entryDy=0;exitX=0.5;exitY=0;exitDx=0;exitDy=0;" parent="1" source="STVm8akJiiikUNMicJ6v-355" target="STVm8akJiiikUNMicJ6v-354" edge="1">
          <mxGeometry width="160" relative="1" as="geometry">
            <mxPoint x="700" y="5670" as="sourcePoint" />
            <mxPoint x="860" y="5670" as="targetPoint" />
          </mxGeometry>
        </mxCell>
        <mxCell id="STVm8akJiiikUNMicJ6v-357" value="public class Employee{}&lt;div&gt;&lt;br&gt;&lt;/div&gt;&lt;div&gt;public class SubEmployee extends Employee{}&lt;/div&gt;" style="text;html=1;align=left;verticalAlign=middle;resizable=0;points=[];autosize=1;strokeColor=none;fillColor=none;" parent="1" vertex="1">
          <mxGeometry x="930" y="5425" width="270" height="60" as="geometry" />
        </mxCell>
        <mxCell id="STVm8akJiiikUNMicJ6v-358" value="&amp;lt;&amp;lt;abstract&amp;gt;&amp;gt;&lt;div&gt;Shape&lt;/div&gt;" style="swimlane;fontStyle=1;align=center;verticalAlign=top;childLayout=stackLayout;horizontal=1;startSize=40;horizontalStack=0;resizeParent=1;resizeParentMax=0;resizeLast=0;collapsible=1;marginBottom=0;whiteSpace=wrap;html=1;" parent="1" vertex="1">
          <mxGeometry x="780" y="5640" width="160" height="100" as="geometry" />
        </mxCell>
        <mxCell id="STVm8akJiiikUNMicJ6v-359" value="-anchorPoint" style="text;strokeColor=none;fillColor=none;align=left;verticalAlign=top;spacingLeft=4;spacingRight=4;overflow=hidden;rotatable=0;points=[[0,0.5],[1,0.5]];portConstraint=eastwest;whiteSpace=wrap;html=1;" parent="STVm8akJiiikUNMicJ6v-358" vertex="1">
          <mxGeometry y="40" width="160" height="26" as="geometry" />
        </mxCell>
        <mxCell id="STVm8akJiiikUNMicJ6v-360" value="" style="line;strokeWidth=1;fillColor=none;align=left;verticalAlign=middle;spacingTop=-1;spacingLeft=3;spacingRight=3;rotatable=0;labelPosition=right;points=[];portConstraint=eastwest;strokeColor=inherit;" parent="STVm8akJiiikUNMicJ6v-358" vertex="1">
          <mxGeometry y="66" width="160" height="8" as="geometry" />
        </mxCell>
        <mxCell id="STVm8akJiiikUNMicJ6v-361" value="+ draw() {abstract}" style="text;strokeColor=none;fillColor=none;align=left;verticalAlign=top;spacingLeft=4;spacingRight=4;overflow=hidden;rotatable=0;points=[[0,0.5],[1,0.5]];portConstraint=eastwest;whiteSpace=wrap;html=1;" parent="STVm8akJiiikUNMicJ6v-358" vertex="1">
          <mxGeometry y="74" width="160" height="26" as="geometry" />
        </mxCell>
        <mxCell id="STVm8akJiiikUNMicJ6v-362" value="public abstract class Shape {&lt;div&gt;&lt;span style=&quot;white-space: pre;&quot;&gt;&#x9;&lt;/span&gt;private Point anchorPoint;&lt;br&gt;&lt;/div&gt;&lt;div&gt;&lt;span style=&quot;white-space: pre;&quot;&gt;&#x9;&lt;/span&gt;public abstract void draw():&lt;br&gt;&lt;/div&gt;&lt;div&gt;}&lt;/div&gt;&lt;div&gt;&lt;br&gt;&lt;/div&gt;" style="text;html=1;align=left;verticalAlign=middle;resizable=0;points=[];autosize=1;strokeColor=none;fillColor=none;" parent="1" vertex="1">
          <mxGeometry x="970" y="5645" width="190" height="90" as="geometry" />
        </mxCell>
        <mxCell id="STVm8akJiiikUNMicJ6v-363" value="Adress" style="html=1;whiteSpace=wrap;" parent="1" vertex="1">
          <mxGeometry x="770" y="5930" width="110" height="50" as="geometry" />
        </mxCell>
        <mxCell id="STVm8akJiiikUNMicJ6v-364" value="String" style="html=1;whiteSpace=wrap;" parent="1" vertex="1">
          <mxGeometry x="997" y="5930" width="110" height="50" as="geometry" />
        </mxCell>
        <mxCell id="STVm8akJiiikUNMicJ6v-365" value="Vector" style="html=1;whiteSpace=wrap;" parent="1" vertex="1">
          <mxGeometry x="862" y="6070" width="110" height="50" as="geometry" />
        </mxCell>
        <mxCell id="STVm8akJiiikUNMicJ6v-367" value="" style="endArrow=classic;html=1;rounded=0;entryX=0;entryY=0.5;entryDx=0;entryDy=0;exitX=1;exitY=0.5;exitDx=0;exitDy=0;" parent="1" source="STVm8akJiiikUNMicJ6v-363" target="STVm8akJiiikUNMicJ6v-364" edge="1">
          <mxGeometry width="50" height="50" relative="1" as="geometry">
            <mxPoint x="770" y="6090" as="sourcePoint" />
            <mxPoint x="820" y="6040" as="targetPoint" />
          </mxGeometry>
        </mxCell>
        <mxCell id="STVm8akJiiikUNMicJ6v-368" value="itsLines" style="text;html=1;align=center;verticalAlign=middle;resizable=0;points=[];autosize=1;strokeColor=none;fillColor=none;" parent="1" vertex="1">
          <mxGeometry x="930" y="5948" width="60" height="30" as="geometry" />
        </mxCell>
        <mxCell id="STVm8akJiiikUNMicJ6v-369" value="" style="endArrow=none;dashed=1;html=1;dashPattern=1 3;strokeWidth=2;rounded=0;exitX=0.5;exitY=0;exitDx=0;exitDy=0;" parent="1" source="STVm8akJiiikUNMicJ6v-365" edge="1">
          <mxGeometry width="50" height="50" relative="1" as="geometry">
            <mxPoint x="770" y="6090" as="sourcePoint" />
            <mxPoint x="920" y="5960" as="targetPoint" />
          </mxGeometry>
        </mxCell>
        <mxCell id="STVm8akJiiikUNMicJ6v-370" value="public class Address{&lt;div&gt;&lt;span style=&quot;white-space: pre;&quot;&gt;&#x9;&lt;/span&gt;private Vector itsLines;&lt;/div&gt;&lt;div&gt;}&lt;/div&gt;" style="text;html=1;align=left;verticalAlign=middle;resizable=0;points=[];autosize=1;strokeColor=none;fillColor=none;" parent="1" vertex="1">
          <mxGeometry x="1010" y="6010" width="170" height="60" as="geometry" />
        </mxCell>
        <mxCell id="STVm8akJiiikUNMicJ6v-372" value="Object" style="html=1;whiteSpace=wrap;" parent="1" vertex="1">
          <mxGeometry x="770" y="5810" width="110" height="50" as="geometry" />
        </mxCell>
        <mxCell id="STVm8akJiiikUNMicJ6v-373" value="Part" style="html=1;whiteSpace=wrap;" parent="1" vertex="1">
          <mxGeometry x="997" y="5810" width="110" height="50" as="geometry" />
        </mxCell>
        <mxCell id="STVm8akJiiikUNMicJ6v-374" value="1" style="endArrow=open;html=1;endSize=12;startArrow=diamondThin;startSize=14;startFill=0;edgeStyle=orthogonalEdgeStyle;align=left;verticalAlign=bottom;rounded=0;" parent="1" edge="1">
          <mxGeometry x="-1" y="3" relative="1" as="geometry">
            <mxPoint x="880" y="5839" as="sourcePoint" />
            <mxPoint x="1000" y="5839" as="targetPoint" />
          </mxGeometry>
        </mxCell>
        <mxCell id="STVm8akJiiikUNMicJ6v-375" value="&lt;font style=&quot;font-size: 15px;&quot;&gt;집합 관계&lt;/font&gt;" style="text;html=1;align=center;verticalAlign=middle;resizable=0;points=[];autosize=1;strokeColor=none;fillColor=none;" parent="1" vertex="1">
          <mxGeometry x="1140" y="5780" width="90" height="30" as="geometry" />
        </mxCell>
        <mxCell id="STVm8akJiiikUNMicJ6v-376" value="public class Object {&lt;div&gt;&lt;span style=&quot;white-space: pre;&quot;&gt;&#x9;&lt;/span&gt;private part part;&lt;/div&gt;&lt;div style=&quot;&quot;&gt;}&lt;/div&gt;" style="text;html=1;align=left;verticalAlign=middle;resizable=0;points=[];autosize=1;strokeColor=none;fillColor=none;" parent="1" vertex="1">
          <mxGeometry x="1150" y="5810" width="140" height="60" as="geometry" />
        </mxCell>
        <mxCell id="P8nt11c8R9zvLPMaR7yh-1" value="자바개발자과정" style="swimlane;fontStyle=1;align=center;verticalAlign=top;childLayout=stackLayout;horizontal=1;startSize=26;horizontalStack=0;resizeParent=1;resizeParentMax=0;resizeLast=0;collapsible=1;marginBottom=0;whiteSpace=wrap;html=1;" vertex="1" parent="1">
          <mxGeometry x="165" y="6270" width="205" height="124" as="geometry" />
        </mxCell>
        <mxCell id="P8nt11c8R9zvLPMaR7yh-2" value="- className : String&lt;div&gt;- startDate : Date&lt;/div&gt;&lt;div&gt;- endDate : Date&lt;/div&gt;" style="text;strokeColor=none;fillColor=none;align=left;verticalAlign=top;spacingLeft=4;spacingRight=4;overflow=hidden;rotatable=0;points=[[0,0.5],[1,0.5]];portConstraint=eastwest;whiteSpace=wrap;html=1;" vertex="1" parent="P8nt11c8R9zvLPMaR7yh-1">
          <mxGeometry y="26" width="205" height="64" as="geometry" />
        </mxCell>
        <mxCell id="P8nt11c8R9zvLPMaR7yh-3" value="" style="line;strokeWidth=1;fillColor=none;align=left;verticalAlign=middle;spacingTop=-1;spacingLeft=3;spacingRight=3;rotatable=0;labelPosition=right;points=[];portConstraint=eastwest;strokeColor=inherit;" vertex="1" parent="P8nt11c8R9zvLPMaR7yh-1">
          <mxGeometry y="90" width="205" height="8" as="geometry" />
        </mxCell>
        <mxCell id="P8nt11c8R9zvLPMaR7yh-4" value="+ joinTraining() : void" style="text;strokeColor=none;fillColor=none;align=left;verticalAlign=top;spacingLeft=4;spacingRight=4;overflow=hidden;rotatable=0;points=[[0,0.5],[1,0.5]];portConstraint=eastwest;whiteSpace=wrap;html=1;" vertex="1" parent="P8nt11c8R9zvLPMaR7yh-1">
          <mxGeometry y="98" width="205" height="26" as="geometry" />
        </mxCell>
        <mxCell id="P8nt11c8R9zvLPMaR7yh-5" value="수강자" style="swimlane;fontStyle=1;align=center;verticalAlign=top;childLayout=stackLayout;horizontal=1;startSize=26;horizontalStack=0;resizeParent=1;resizeParentMax=0;resizeLast=0;collapsible=1;marginBottom=0;whiteSpace=wrap;html=1;" vertex="1" parent="1">
          <mxGeometry x="495" y="6270" width="205" height="104" as="geometry" />
        </mxCell>
        <mxCell id="P8nt11c8R9zvLPMaR7yh-6" value="- userName : String&lt;div&gt;- userNumber : int&lt;/div&gt;" style="text;strokeColor=none;fillColor=none;align=left;verticalAlign=top;spacingLeft=4;spacingRight=4;overflow=hidden;rotatable=0;points=[[0,0.5],[1,0.5]];portConstraint=eastwest;whiteSpace=wrap;html=1;" vertex="1" parent="P8nt11c8R9zvLPMaR7yh-5">
          <mxGeometry y="26" width="205" height="44" as="geometry" />
        </mxCell>
        <mxCell id="P8nt11c8R9zvLPMaR7yh-7" value="" style="line;strokeWidth=1;fillColor=none;align=left;verticalAlign=middle;spacingTop=-1;spacingLeft=3;spacingRight=3;rotatable=0;labelPosition=right;points=[];portConstraint=eastwest;strokeColor=inherit;" vertex="1" parent="P8nt11c8R9zvLPMaR7yh-5">
          <mxGeometry y="70" width="205" height="8" as="geometry" />
        </mxCell>
        <mxCell id="P8nt11c8R9zvLPMaR7yh-8" value="- 수강자과정 : 풀스택개발자과정" style="text;strokeColor=none;fillColor=none;align=left;verticalAlign=top;spacingLeft=4;spacingRight=4;overflow=hidden;rotatable=0;points=[[0,0.5],[1,0.5]];portConstraint=eastwest;whiteSpace=wrap;html=1;" vertex="1" parent="P8nt11c8R9zvLPMaR7yh-5">
          <mxGeometry y="78" width="205" height="26" as="geometry" />
        </mxCell>
        <mxCell id="P8nt11c8R9zvLPMaR7yh-9" value="풀스택개발자과정" style="swimlane;fontStyle=1;align=center;verticalAlign=top;childLayout=stackLayout;horizontal=1;startSize=26;horizontalStack=0;resizeParent=1;resizeParentMax=0;resizeLast=0;collapsible=1;marginBottom=0;whiteSpace=wrap;html=1;" vertex="1" parent="1">
          <mxGeometry x="495" y="6480" width="205" height="116" as="geometry" />
        </mxCell>
        <mxCell id="P8nt11c8R9zvLPMaR7yh-10" value="- className : String&lt;div&gt;- startDate : Date&lt;/div&gt;&lt;div&gt;- endDate : Date&lt;/div&gt;" style="text;strokeColor=none;fillColor=none;align=left;verticalAlign=top;spacingLeft=4;spacingRight=4;overflow=hidden;rotatable=0;points=[[0,0.5],[1,0.5]];portConstraint=eastwest;whiteSpace=wrap;html=1;" vertex="1" parent="P8nt11c8R9zvLPMaR7yh-9">
          <mxGeometry y="26" width="205" height="44" as="geometry" />
        </mxCell>
        <mxCell id="P8nt11c8R9zvLPMaR7yh-11" value="" style="line;strokeWidth=1;fillColor=none;align=left;verticalAlign=middle;spacingTop=-1;spacingLeft=3;spacingRight=3;rotatable=0;labelPosition=right;points=[];portConstraint=eastwest;strokeColor=inherit;" vertex="1" parent="P8nt11c8R9zvLPMaR7yh-9">
          <mxGeometry y="70" width="205" height="20" as="geometry" />
        </mxCell>
        <mxCell id="P8nt11c8R9zvLPMaR7yh-12" value="+ joinTraining() : void" style="text;strokeColor=none;fillColor=none;align=left;verticalAlign=top;spacingLeft=4;spacingRight=4;overflow=hidden;rotatable=0;points=[[0,0.5],[1,0.5]];portConstraint=eastwest;whiteSpace=wrap;html=1;" vertex="1" parent="P8nt11c8R9zvLPMaR7yh-9">
          <mxGeometry y="90" width="205" height="26" as="geometry" />
        </mxCell>
        <mxCell id="P8nt11c8R9zvLPMaR7yh-13" value="&lt;i&gt;&lt;font color=&quot;#0066cc&quot;&gt;KhAcademy&lt;/font&gt;&lt;/i&gt;" style="swimlane;fontStyle=1;align=center;verticalAlign=top;childLayout=stackLayout;horizontal=1;startSize=26;horizontalStack=0;resizeParent=1;resizeParentMax=0;resizeLast=0;collapsible=1;marginBottom=0;whiteSpace=wrap;html=1;" vertex="1" parent="1">
          <mxGeometry x="97.5" y="6476" width="205" height="124" as="geometry" />
        </mxCell>
        <mxCell id="P8nt11c8R9zvLPMaR7yh-14" value="- className : String&lt;div&gt;- startDate : Date&lt;/div&gt;&lt;div&gt;- endDate : Date&lt;/div&gt;" style="text;strokeColor=none;fillColor=none;align=left;verticalAlign=top;spacingLeft=4;spacingRight=4;overflow=hidden;rotatable=0;points=[[0,0.5],[1,0.5]];portConstraint=eastwest;whiteSpace=wrap;html=1;" vertex="1" parent="P8nt11c8R9zvLPMaR7yh-13">
          <mxGeometry y="26" width="205" height="64" as="geometry" />
        </mxCell>
        <mxCell id="P8nt11c8R9zvLPMaR7yh-15" value="" style="line;strokeWidth=1;fillColor=none;align=left;verticalAlign=middle;spacingTop=-1;spacingLeft=3;spacingRight=3;rotatable=0;labelPosition=right;points=[];portConstraint=eastwest;strokeColor=inherit;" vertex="1" parent="P8nt11c8R9zvLPMaR7yh-13">
          <mxGeometry y="90" width="205" height="8" as="geometry" />
        </mxCell>
        <mxCell id="P8nt11c8R9zvLPMaR7yh-16" value="&lt;i&gt;&lt;font color=&quot;#0066cc&quot;&gt;# makeClass() : void&lt;/font&gt;&lt;/i&gt;" style="text;strokeColor=none;fillColor=none;align=left;verticalAlign=top;spacingLeft=4;spacingRight=4;overflow=hidden;rotatable=0;points=[[0,0.5],[1,0.5]];portConstraint=eastwest;whiteSpace=wrap;html=1;" vertex="1" parent="P8nt11c8R9zvLPMaR7yh-13">
          <mxGeometry y="98" width="205" height="26" as="geometry" />
        </mxCell>
        <mxCell id="P8nt11c8R9zvLPMaR7yh-17" value="" style="endArrow=block;endFill=0;endSize=12;html=1;rounded=0;entryX=0.5;entryY=0;entryDx=0;entryDy=0;exitX=0.512;exitY=1.231;exitDx=0;exitDy=0;exitPerimeter=0;" edge="1" parent="1" source="P8nt11c8R9zvLPMaR7yh-4" target="P8nt11c8R9zvLPMaR7yh-13">
          <mxGeometry width="160" relative="1" as="geometry">
            <mxPoint x="410" y="6470" as="sourcePoint" />
            <mxPoint x="410" y="6410" as="targetPoint" />
          </mxGeometry>
        </mxCell>
        <mxCell id="P8nt11c8R9zvLPMaR7yh-18" value="" style="endArrow=block;endFill=0;endSize=12;html=1;rounded=0;entryX=1.002;entryY=0.672;entryDx=0;entryDy=0;exitX=-0.01;exitY=0.864;exitDx=0;exitDy=0;entryPerimeter=0;exitPerimeter=0;" edge="1" parent="1" source="P8nt11c8R9zvLPMaR7yh-10" target="P8nt11c8R9zvLPMaR7yh-14">
          <mxGeometry width="160" relative="1" as="geometry">
            <mxPoint x="420" y="6480" as="sourcePoint" />
            <mxPoint x="420" y="6420" as="targetPoint" />
          </mxGeometry>
        </mxCell>
        <mxCell id="P8nt11c8R9zvLPMaR7yh-23" value="" style="html=1;verticalAlign=bottom;endArrow=block;curved=0;rounded=0;entryX=0.5;entryY=0;entryDx=0;entryDy=0;exitX=0.507;exitY=1;exitDx=0;exitDy=0;exitPerimeter=0;" edge="1" parent="1" source="P8nt11c8R9zvLPMaR7yh-8" target="P8nt11c8R9zvLPMaR7yh-9">
          <mxGeometry width="80" relative="1" as="geometry">
            <mxPoint x="690" y="6320" as="sourcePoint" />
            <mxPoint x="770" y="6320" as="targetPoint" />
          </mxGeometry>
        </mxCell>
        <mxCell id="P8nt11c8R9zvLPMaR7yh-26" value="&lt;div style=&quot;background-color: rgb(255, 255, 255); padding: 0px 0px 0px 2px; font-size: 15px;&quot;&gt;&lt;div style=&quot;font-family: Consolas; white-space-collapse: preserve;&quot;&gt;&lt;p style=&quot;margin:0;&quot;&gt;&lt;span style=&quot;color:#7f0055;font-weight:bold;&quot;&gt;public&lt;/span&gt; &lt;span style=&quot;color:#7f0055;font-weight:bold;&quot;&gt;abstract&lt;/span&gt; &lt;span style=&quot;color:#7f0055;font-weight:bold;&quot;&gt;class&lt;/span&gt; &lt;span style=&quot;text-decoration-line: underline; text-decoration-color: rgb(255, 0, 128); text-decoration-style: wavy;&quot;&gt;KhAcademy&lt;/span&gt; {&lt;/p&gt;&lt;p style=&quot;margin:0;&quot;&gt;&#x9;&lt;span style=&quot;color:#7f0055;font-weight:bold;&quot;&gt;private&lt;/span&gt; &lt;span style=&quot;color:#7f0055;font-weight:bold;&quot;&gt;int&lt;/span&gt; &lt;span style=&quot;color:#0000c0;&quot;&gt;id&lt;/span&gt;;&lt;/p&gt;&lt;p style=&quot;margin:0;&quot;&gt;&#x9;&lt;span style=&quot;color:#7f0055;font-weight:bold;&quot;&gt;protected&lt;/span&gt; &lt;span style=&quot;color:#7f0055;font-weight:bold;&quot;&gt;abstract&lt;/span&gt; &lt;span style=&quot;color:#7f0055;font-weight:bold;&quot;&gt;void&lt;/span&gt; makeClass() ;&lt;/p&gt;&lt;p style=&quot;margin:0;&quot;&gt;}&lt;/p&gt;&lt;/div&gt;&lt;/div&gt;" style="text;html=1;align=left;verticalAlign=middle;resizable=0;points=[];autosize=1;strokeColor=none;fillColor=none;" vertex="1" parent="1">
          <mxGeometry x="55" y="6650" width="400" height="90" as="geometry" />
        </mxCell>
        <mxCell id="P8nt11c8R9zvLPMaR7yh-27" value="&lt;div style=&quot;background-color: rgb(255, 255, 255); padding: 0px 0px 0px 2px; font-size: 15px;&quot;&gt;&lt;div style=&quot;font-family: Consolas; white-space-collapse: preserve;&quot;&gt;&lt;p style=&quot;margin:0;&quot;&gt;&lt;span style=&quot;color:#7f0055;font-weight:bold;&quot;&gt;public&lt;/span&gt; &lt;span style=&quot;color:#7f0055;font-weight:bold;&quot;&gt;class&lt;/span&gt; &lt;span style=&quot;text-decoration-line: underline; text-decoration-color: rgb(255, 0, 128); text-decoration-style: wavy;&quot;&gt;자바개발과정&lt;/span&gt; &lt;span style=&quot;color:#7f0055;font-weight:bold;&quot;&gt;extends&lt;/span&gt; KhAcademy{&lt;/p&gt;&lt;p style=&quot;margin:0;&quot;&gt;&#x9;&lt;span style=&quot;color:#7f0055;font-weight:bold;&quot;&gt;private&lt;/span&gt; String &lt;span style=&quot;color:#0000c0;&quot;&gt;className&lt;/span&gt;;&lt;/p&gt;&lt;p style=&quot;margin:0;&quot;&gt;&#x9;&lt;span style=&quot;color:#7f0055;font-weight:bold;&quot;&gt;private&lt;/span&gt; Date &lt;span style=&quot;color:#0000c0;&quot;&gt;startDate&lt;/span&gt;;&lt;/p&gt;&lt;p style=&quot;margin:0;&quot;&gt;&#x9;&lt;span style=&quot;color:#7f0055;font-weight:bold;&quot;&gt;private&lt;/span&gt; Date &lt;span style=&quot;color:#0000c0;&quot;&gt;endDate&lt;/span&gt;;&lt;/p&gt;&lt;p style=&quot;margin:0;&quot;&gt;&#x9;&lt;span style=&quot;color:#646464;&quot;&gt;@Override&lt;/span&gt;&lt;/p&gt;&lt;p style=&quot;margin:0;&quot;&gt;&#x9;&lt;span style=&quot;color:#7f0055;font-weight:bold;&quot;&gt;protected&lt;/span&gt; &lt;span style=&quot;color:#7f0055;font-weight:bold;&quot;&gt;void&lt;/span&gt; makeClass() {}&lt;/p&gt;&lt;p style=&quot;margin:0;&quot;&gt;&#x9;&lt;span style=&quot;color:#7f0055;font-weight:bold;&quot;&gt;public&lt;/span&gt; &lt;span style=&quot;color:#7f0055;font-weight:bold;&quot;&gt;void&lt;/span&gt; joinTraning() {};&lt;/p&gt;&lt;p style=&quot;margin:0;&quot;&gt;}&lt;/p&gt;&lt;/div&gt;&lt;/div&gt;" style="text;html=1;align=left;verticalAlign=middle;resizable=0;points=[];autosize=1;strokeColor=none;fillColor=none;" vertex="1" parent="1">
          <mxGeometry x="40" y="6110" width="380" height="160" as="geometry" />
        </mxCell>
        <mxCell id="P8nt11c8R9zvLPMaR7yh-28" value="&lt;div style=&quot;background-color: rgb(255, 255, 255); padding: 0px 0px 0px 2px; font-size: 15px;&quot;&gt;&lt;div style=&quot;font-family: Consolas; white-space-collapse: preserve;&quot;&gt;&lt;p style=&quot;margin:0;&quot;&gt;&lt;span style=&quot;color:#7f0055;font-weight:bold;&quot;&gt;public&lt;/span&gt; &lt;span style=&quot;color:#7f0055;font-weight:bold;&quot;&gt;class&lt;/span&gt; &lt;span style=&quot;text-decoration-line: underline; text-decoration-color: rgb(255, 0, 128); text-decoration-style: wavy;&quot;&gt;풀스택개발자과정&lt;/span&gt; &lt;span style=&quot;color:#7f0055;font-weight:bold;&quot;&gt;extends&lt;/span&gt; KhAcademy{&lt;/p&gt;&lt;p style=&quot;margin:0;&quot;&gt;&#x9;&lt;span style=&quot;color:#7f0055;font-weight:bold;&quot;&gt;private&lt;/span&gt; String &lt;span style=&quot;color:#0000c0;&quot;&gt;className&lt;/span&gt;;&lt;/p&gt;&lt;p style=&quot;margin:0;&quot;&gt;&#x9;&lt;span style=&quot;color:#7f0055;font-weight:bold;&quot;&gt;private&lt;/span&gt; Date &lt;span style=&quot;color:#0000c0;&quot;&gt;startDate&lt;/span&gt;;&lt;/p&gt;&lt;p style=&quot;margin:0;&quot;&gt;&#x9;&lt;span style=&quot;color:#7f0055;font-weight:bold;&quot;&gt;private&lt;/span&gt; Date &lt;span style=&quot;color:#0000c0;&quot;&gt;endDate&lt;/span&gt;;&lt;/p&gt;&lt;p style=&quot;margin:0;&quot;&gt;&#x9;&lt;span style=&quot;color:#646464;&quot;&gt;@Override&lt;/span&gt;&lt;/p&gt;&lt;p style=&quot;margin:0;&quot;&gt;&#x9;&lt;span style=&quot;color:#7f0055;font-weight:bold;&quot;&gt;protected&lt;/span&gt; &lt;span style=&quot;color:#7f0055;font-weight:bold;&quot;&gt;void&lt;/span&gt; makeClass() {}&lt;/p&gt;&lt;p style=&quot;margin:0;&quot;&gt;&#x9;&lt;span style=&quot;color:#7f0055;font-weight:bold;&quot;&gt;public&lt;/span&gt; &lt;span style=&quot;color:#7f0055;font-weight:bold;&quot;&gt;void&lt;/span&gt; joinTraning() {};&lt;/p&gt;&lt;p style=&quot;margin:0;&quot;&gt;&#x9;&lt;/p&gt;&lt;p style=&quot;margin: 0px;&quot;&gt;}&lt;/p&gt;&lt;/div&gt;&lt;/div&gt;" style="text;html=1;align=left;verticalAlign=middle;resizable=0;points=[];autosize=1;strokeColor=none;fillColor=none;" vertex="1" parent="1">
          <mxGeometry x="712" y="6480" width="410" height="180" as="geometry" />
        </mxCell>
        <mxCell id="P8nt11c8R9zvLPMaR7yh-29" value="&lt;div style=&quot;background-color: rgb(255, 255, 255); padding: 0px 0px 0px 2px; font-size: 15px;&quot;&gt;&lt;div style=&quot;font-family: Consolas; white-space-collapse: preserve;&quot;&gt;&lt;p style=&quot;margin:0;&quot;&gt;&lt;span style=&quot;color:#7f0055;font-weight:bold;&quot;&gt;public&lt;/span&gt; &lt;span style=&quot;color:#7f0055;font-weight:bold;&quot;&gt;class&lt;/span&gt; &lt;span style=&quot;text-decoration-line: underline; text-decoration-color: rgb(255, 0, 128); text-decoration-style: wavy;&quot;&gt;수강자&lt;/span&gt; {&lt;/p&gt;&lt;p style=&quot;margin:0;&quot;&gt;&#x9;&lt;span style=&quot;color:#7f0055;font-weight:bold;&quot;&gt;private&lt;/span&gt; &lt;span style=&quot;text-decoration-line: underline; text-decoration-color: rgb(255, 0, 128); text-decoration-style: wavy;&quot;&gt;풀스택개발과정&lt;/span&gt; &lt;span style=&quot;color:#0000c0;&quot;&gt;수강자과정&lt;/span&gt;;&lt;/p&gt;&lt;p style=&quot;margin:0;&quot;&gt;&#x9;&lt;span style=&quot;color:#7f0055;font-weight:bold;&quot;&gt;private&lt;/span&gt; String &lt;span style=&quot;color:#0000c0;&quot;&gt;userName&lt;/span&gt;;&lt;/p&gt;&lt;p style=&quot;margin:0;&quot;&gt;&#x9;&lt;span style=&quot;color:#7f0055;font-weight:bold;&quot;&gt;private&lt;/span&gt; &lt;span style=&quot;color:#7f0055;font-weight:bold;&quot;&gt;int&lt;/span&gt; &lt;span style=&quot;color:#0000c0;&quot;&gt;userNumber&lt;/span&gt;;&lt;/p&gt;&lt;p style=&quot;margin:0;&quot;&gt;}&lt;/p&gt;&lt;/div&gt;&lt;/div&gt;" style="text;html=1;align=left;verticalAlign=middle;resizable=0;points=[];autosize=1;strokeColor=none;fillColor=none;" vertex="1" parent="1">
          <mxGeometry x="730" y="6272" width="350" height="100" as="geometry" />
        </mxCell>
      </root>
    </mxGraphModel>
  </diagram>
</mxfile>
